<svg width="1440" height="255" viewBox="0 0 1440 255" fill="none" xmlns="http://www.w3.org/2000/svg">
<rect width="1440" height="255" fill="black"/>
<path d="M503.865 10.5249L543 7.5L811 15.5L958.798 8.6456C974.96 7.89604 991.022 11.5628 1005.26 19.2522C1034.05 34.806 1052 64.8978 1052 97.6254V113.358C1052 165.637 1016.87 211.392 966.366 224.895L933.868 233.584C916.743 238.163 898.973 239.85 881.293 238.577L615.05 219.408C602.055 218.472 588.996 218.938 576.1 220.798L519.454 228.968C472.204 235.783 426.21 210.248 407.008 166.541C394.33 137.683 395.118 104.686 409.161 76.4668L410.739 73.2963C428.578 37.4479 463.942 13.6107 503.865 10.5249Z" stroke="white" stroke-width="3"/>
</svg>
