<svg width="1440" height="442" viewBox="0 0 1440 442" fill="none" xmlns="http://www.w3.org/2000/svg">
<rect width="1440" height="442" fill="black"/>
<path d="M180.356 36.3314L231.788 25.2779C251.208 21.1044 271.015 19 290.879 19H555.5L908 30L1201.24 21.9158C1267.86 20.0791 1331.5 49.545 1373.2 101.537L1379.87 109.858C1408.6 145.671 1423 190.875 1420.28 236.703C1414.1 340.903 1323.09 419.419 1219.11 410.245L1154 404.5L779.093 423.08C726.447 425.689 673.677 424.132 621.276 418.422L531.962 408.691C506.362 405.901 480.579 405.163 454.862 406.483L201.881 419.463C116.684 423.835 40.4282 366.978 20.302 284.077C15.4704 264.176 14.1195 243.589 16.309 223.227L16.8864 217.857C26.5036 128.416 92.408 55.2325 180.356 36.3314Z" stroke="white" stroke-width="3"/>
</svg>
