<svg width="1440" height="255" viewBox="0 0 1440 255" fill="none" xmlns="http://www.w3.org/2000/svg">
<rect width="1440" height="255" fill="black"/>
<path fill-rule="evenodd" clip-rule="evenodd" d="M512.476 1.99771L754.513 11.9992L1099.51 3.49937L1283.99 9.75913C1324.61 11.1376 1360.44 36.7623 1374.88 74.7618C1381.85 93.1117 1383.31 113.097 1379.1 132.267L1378.2 136.335C1369.02 178.062 1337.44 211.245 1296.22 222.474L1250.35 234.969C1232 239.966 1213.02 242.231 1194.02 241.691L870.502 232.501L551.991 242.501L321.503 232.502L132.801 241.382C117.165 242.117 101.824 236.947 89.8239 226.897C75.6744 215.046 67.5 197.538 67.5 179.081V146.244C67.5 120.789 75.9057 96.0471 91.4116 75.8602C110.451 51.0727 138.721 35.0563 169.77 31.4656L268.858 20.0064L512.476 1.99771ZM512.524 5.00229L269.141 22.9936L170.114 34.4457C139.872 37.9432 112.336 53.5438 93.7908 77.6877C78.6875 97.3504 70.5 121.45 70.5 146.244V179.081C70.5 196.65 78.2812 213.316 91.7501 224.597C103.173 234.164 117.776 239.085 132.66 238.385L321.497 229.498L552.009 239.499L870.498 229.499L1194.1 238.693C1212.81 239.224 1231.5 236.994 1249.56 232.075L1295.43 219.58C1335.57 208.644 1366.33 176.328 1375.27 135.69L1376.17 131.623C1380.26 113.022 1378.84 93.6314 1372.07 75.8272C1358.07 38.9576 1323.3 14.0949 1283.88 12.7574L1099.49 6.50063L754.487 15.0008L512.524 5.00229Z" fill="white"/>
</svg>
