<svg id="03" viewBox="0 0 1013 426" xmlns="http://www.w3.org/2000/svg" xmlns:xlink="http://www.w3.org/1999/xlink"><g transform="matrix(1,0,0,1,0,0)"><g id="03" opacity="1" style="mix-blend-mode:normal"><g><defs><clipPath id="03_clipPath" x="-50%" y="-50%" width="200%" height="200%"><path d="M0,426v-426h1013v426z" fill="white" clip-rule="nonzero"></path></clipPath></defs><g clip-path="url(#03_clipPath)"><g transform="matrix(1,0,0,1,2,349.8244)"><g id="04" opacity="1" style="mix-blend-mode:normal"><g><g><path id="04_stroke_path" d="M0,16.75158c19.5221,-1.084 38.8719,-5.76299 58.1663,-8.61099c32.7623,-4.836 65.91969,-3.91101 98.95769,-3.62601c31.122,0.268 61.37101,6.192 92.23601,9.367c47.797,4.916 93.35201,-0.52399 140.73201,-7.17599c65.312,-9.171 129.24101,-6.26999 194.59201,-6.26999" fill="none" stroke="rgb(0, 0, 0)" stroke-width="4" stroke-linecap="round" stroke-linejoin="round" stroke-dasharray="0 0" stroke-opacity="1"></path></g></g></g></g><g transform="matrix(1,0,0,1,586.684,340.742)"><g id="05" opacity="1" style="mix-blend-mode:normal"><g><g><path id="05_stroke_path" d="M0,8.15799c98.653,0 197.02795,0.716 295.51495,-5.892c30.994,-2.08 61.87804,-2.26599 92.91504,-2.26599c12.357,0 23.71597,0.52099 35.80597,2.71899" fill="none" stroke="rgb(0, 0, 0)" stroke-width="4" stroke-linecap="round" stroke-linejoin="round" stroke-dasharray="0 0" stroke-opacity="1"></path></g></g></g></g><g transform="matrix(1,0,0,1,133.3746,230.603)"><g id="06" opacity="1" style="mix-blend-mode:normal"><g><g><path id="06_stroke_path" d="M0.5194,127.815c0,-26.959 -1.63899,-54.51299 0.90601,-81.35699c1.051,-11.076 5.096,-22.20601 4.457,-33.38901c-0.251,-4.4 -1.284,-8.64 -1.284,-13.069" fill="none" stroke="rgb(0, 0, 0)" stroke-width="4" stroke-linecap="round" stroke-linejoin="round" stroke-dasharray="0 0" stroke-opacity="1"></path></g></g></g></g><g transform="matrix(1,0,0,1,113.498,145.2907)"><g id="07" opacity="1" style="mix-blend-mode:normal"><g><g><path id="07_stroke_path" d="M0,97.55032c0.93,-10.228 10.475,-22.201 15.259,-30.821c6.443,-11.606 13.396,-25.395 23.493,-34.371c10.587,-9.41 17.89299,-20.97901 30.59399,-27.87401c1.722,-0.935 2.69401,-5.615 4.07901,-4.23c0.575,0.574 0.02499,1.65401 0.30299,2.41701c2.038,5.605 7.67899,10.56799 11.48199,14.88199c11.492,13.035 24.07901,26.85401 38.52501,36.48601" fill="none" stroke="rgb(0, 0, 0)" stroke-width="4" stroke-linecap="round" stroke-linejoin="round" stroke-dasharray="0 0" stroke-opacity="1"></path></g></g></g></g><g transform="matrix(1,0,0,1,218.186,199.33)"><g id="08" opacity="1" style="mix-blend-mode:normal"><g><g><path id="08_stroke_path" d="M0.01097,0c0,29.591 -0.42901,59.029 4.07899,88.382c1.637,10.654 6.799,22.231 6.799,32.936c0,8.384 -1.17299,21.827 2.71901,29.612" fill="none" stroke="rgb(0, 0, 0)" stroke-width="4" stroke-linecap="round" stroke-linejoin="round" stroke-dasharray="0 0" stroke-opacity="1"></path></g></g></g></g><g transform="matrix(1,0,0,1,267.1468,208.848)"><g id="09" opacity="1" style="mix-blend-mode:normal"><g><g><path id="09_stroke_path" d="M0.00119,148.21001c0,-38.33 -0.13301,-76.42402 2.41699,-114.67001c0.737,-11.053 1.66199,-22.51199 1.66199,-33.53999" fill="none" stroke="rgb(0, 0, 0)" stroke-width="4" stroke-linecap="round" stroke-linejoin="round" stroke-dasharray="0 0" stroke-opacity="1"></path></g></g></g></g><g transform="matrix(1,0,0,1,245.392,115.026)"><g id="010" opacity="1" style="mix-blend-mode:normal"><g><g><path id="010_stroke_path" d="M0,110.13899c4.731,-49.68 41.20001,-82.74699 78.86401,-110.13899" fill="none" stroke="rgb(0, 0, 0)" stroke-width="4" stroke-linecap="round" stroke-linejoin="round" stroke-dasharray="0 0" stroke-opacity="1"></path></g></g></g></g><g transform="matrix(1,0,0,1,324.256,115.026)"><g id="011" opacity="1" style="mix-blend-mode:normal"><g><g><path id="011_stroke_path" d="M0,0c2.343,21.086 18.32199,41.44299 29.98999,58.16699c12.626,18.097 26.958,34.773 40.716,51.972" fill="none" stroke="rgb(0, 0, 0)" stroke-width="4" stroke-linecap="round" stroke-linejoin="round" stroke-dasharray="0 0" stroke-opacity="1"></path></g></g></g></g><g transform="matrix(1,0,0,1,366.8669,206.128)"><g id="012" opacity="1" style="mix-blend-mode:normal"><g><g><path id="012_stroke_path" d="M0.90111,0c0,16.493 0,32.98599 0,49.47899c0,16.705 -2.46299,35.652 0.755,52.19901c1.287,6.618 3.229,36.64999 3.229,43.58499" fill="none" stroke="rgb(0, 0, 0)" stroke-width="4" stroke-linecap="round" stroke-linejoin="round" stroke-dasharray="0 0" stroke-opacity="1"></path></g></g></g></g><g transform="matrix(1,0,0,1,420.797,237.402)"><g id="013" opacity="1" style="mix-blend-mode:normal"><g><g><path id="013_stroke_path" d="M0,0v115.57701" fill="none" stroke="rgb(0, 0, 0)" stroke-width="4" stroke-linecap="round" stroke-linejoin="round" stroke-dasharray="0 0" stroke-opacity="1"></path></g></g></g></g><g transform="matrix(1,0,0,1,404.48,119.105)"><g id="014" opacity="1" style="mix-blend-mode:normal"><g><g><path id="014_stroke_path" d="M0,144.13199c1.457,-22.571 11.59199,-43.96999 21.37799,-63.98299c14.003,-28.635 31.96299,-54.488 50.68799,-80.14899" fill="none" stroke="rgb(0, 0, 0)" stroke-width="4" stroke-linecap="round" stroke-linejoin="round" stroke-dasharray="0 0" stroke-opacity="1"></path></g></g></g></g><g transform="matrix(1,0,0,1,476.546,120.465)"><g id="015" opacity="1" style="mix-blend-mode:normal"><g><g><path id="015_stroke_path" d="M0,0c4.071,16.285 15.005,32.205 23.871,46.231c7.462,11.806 15.20498,22.759 25.07898,32.634" fill="none" stroke="rgb(0, 0, 0)" stroke-width="4" stroke-linecap="round" stroke-linejoin="round" stroke-dasharray="0 0" stroke-opacity="1"></path></g></g></g></g><g transform="matrix(1,0,0,1,507.82,193.891)"><g id="016" opacity="1" style="mix-blend-mode:normal"><g><g><path id="016_stroke_path" d="M1.35999,0c0,37.694 0,75.389 0,113.084c0,5.808 5.47601,32.057 -1.35999,33.767" fill="none" stroke="rgb(0, 0, 0)" stroke-width="4" stroke-linecap="round" stroke-linejoin="round" stroke-dasharray="0 0" stroke-opacity="1"></path></g></g></g></g><g transform="matrix(1,0,0,1,590.763,237.402)"><g id="017" opacity="1" style="mix-blend-mode:normal"><g><g><path id="017_stroke_path" d="M4.08002,112.85802c0,-26.662 1.14996,-53.596 -0.30304,-80.224c-0.265,-4.875 0.44802,-30.52102 -3.77698,-32.63402" fill="none" stroke="rgb(0, 0, 0)" stroke-width="4" stroke-linecap="round" stroke-linejoin="round" stroke-dasharray="0 0" stroke-opacity="1"></path></g></g></g></g><g transform="matrix(1,0,0,1,559.49,109.587)"><g id="018" opacity="1" style="mix-blend-mode:normal"><g><g><path id="018_stroke_path" d="M0,140.05301c1.468,-29.368 20.07103,-57.03001 36.25903,-80.45101c14.584,-21.101 32.52799,-40.316 49.40399,-59.602" fill="none" stroke="rgb(0, 0, 0)" stroke-width="4" stroke-linecap="round" stroke-linejoin="round" stroke-dasharray="0 0" stroke-opacity="1"></path></g></g></g></g><g transform="matrix(1,0,0,1,643.793,116.386)"><g id="019" opacity="1" style="mix-blend-mode:normal"><g><g><path id="019_stroke_path" d="M0,0c0,19.998 8.79498,29.632 21.60498,44.418c4.165,4.808 48.28001,57.023 49.10101,56.202" fill="none" stroke="rgb(0, 0, 0)" stroke-width="4" stroke-linecap="round" stroke-linejoin="round" stroke-dasharray="0 0" stroke-opacity="1"></path></g></g></g></g><g transform="matrix(1,0,0,1,691.2221,207.488)"><g id="020" opacity="1" style="mix-blend-mode:normal"><g><g><path id="020_stroke_path" d="M0.16187,0c0,28.597 -0.40999,57.222 0.07501,85.814c0.133,7.861 0.13999,17.227 1.35999,25.155c1.003,6.524 3.75905,13.266 4.00305,19.867c0.198,5.324 0.54596,3.77701 -4.07904,3.77701" fill="none" stroke="rgb(0, 0, 0)" stroke-width="4" stroke-linecap="round" stroke-linejoin="round" stroke-dasharray="0 0" stroke-opacity="1"></path></g></g></g></g><g transform="matrix(1,0,0,1,184.1096,202.157)"><g id="021" opacity="1" style="mix-blend-mode:normal"><g><g><path id="021_stroke_path" d="M1.40837,0c-1.211,3.481 -2.21501,11.477 -0.47101,14.879c1.277,2.49 7.163,2.317 9.418,1.884c9.655,-1.857 1.90401,-12.939 -3.86099,-14.22" fill="none" stroke="rgb(0, 0, 0)" stroke-width="4" stroke-linecap="round" stroke-linejoin="round" stroke-dasharray="0 0" stroke-opacity="1"></path></g></g></g></g><g transform="matrix(1,0,0,1,303.328,169.102)"><g id="022" opacity="1" style="mix-blend-mode:normal"><g><g><path id="022_stroke_path" d="M0,7.62799c0,7.387 0.85,12.151 9.983,11.866c5.35,-0.167 8.79398,-6.83999 10.16998,-11.30099c2.121,-6.871 -6.15699,-7.60899 -10.82999,-8.19299" fill="none" stroke="rgb(0, 0, 0)" stroke-width="4" stroke-linecap="round" stroke-linejoin="round" stroke-dasharray="0 0" stroke-opacity="1"></path></g></g></g></g><g transform="matrix(1,0,0,1,455.7997,181.816)"><g id="023" opacity="1" style="mix-blend-mode:normal"><g><g><path id="023_stroke_path" d="M0.08828,5.93201c0,2.752 -0.227,5.59699 0.047,8.33499c0.399,3.985 10.89402,2.57401 13.37302,2.21301c10.814,-1.577 7.18399,-11.78501 0.14099,-16.48001" fill="none" stroke="rgb(0, 0, 0)" stroke-width="4" stroke-linecap="round" stroke-linejoin="round" stroke-dasharray="0 0" stroke-opacity="1"></path></g></g></g></g><g transform="matrix(1,0,0,1,624.0267,175.6792)"><g id="024" opacity="1" style="mix-blend-mode:normal"><g><g><path id="024_stroke_path" d="M5.61036,1.05083c-5.119,0.768 -6.64603,4.37201 -4.94403,8.94701c2.584,6.945 9.199,10.025 16.245,7.11c4.526,-1.873 4.24599,-4.907 3.76599,-9.465c-0.899,-8.546 -4.584,-8.52601 -11.677,-6.59201" fill="none" stroke="rgb(0, 0, 0)" stroke-width="4" stroke-linecap="round" stroke-linejoin="round" stroke-dasharray="0 0" stroke-opacity="1"></path></g></g></g></g><g transform="matrix(1,0,0,1,12.7378,109.0796)"><g id="025" opacity="1" style="mix-blend-mode:normal"><g><g><path id="025_stroke_path" d="M0.22115,259.61139c0,-19.354 -1.302,-39.44801 2.4123,-58.54001c5.5787,-28.674 24.8847,-59.50299 48.569,-76.95399c7.748,-5.709 9.8175,-4.2 11.901,-12.625c6.9516,-28.10864 32.57808,-51.74965 55.15875,-69.0634M265.09906,29.47238c-5.46,-8.19 -12.34201,-17.217 -20.18301,-23.4c-9.89,-7.7981 -25.37399,-6.2347 -37.23099,-5.2272c-19.74439,1.67773 -41.40415,10.86849 -60.58707,22.07523" fill="none" stroke="rgb(0, 0, 0)" stroke-width="4" stroke-linecap="round" stroke-linejoin="round" stroke-dasharray="0 0" stroke-opacity="1"></path></g></g></g></g><g transform="matrix(1,0,0,1,248.8892,13.4964)"><g id="026" opacity="1" style="mix-blend-mode:normal"><g><g><path id="026_stroke_path" d="M0,93.00156c8.91,-22.5384 22.59784,-54.283 44.61084,-62.4979c16.486,-6.1526 55.638,-30.08223 73,-30.50003c16.929,-0.4074 27.65614,33.54942 44.33914,36.87012c14.437,2.8737 25.53903,8.9132 40.68903,8.0413c35.97183,3.08861 56.97183,38.08861 56.97183,38.08861" fill="none" stroke="rgb(0, 0, 0)" stroke-width="4" stroke-linecap="round" stroke-linejoin="round" stroke-dasharray="0 0" stroke-opacity="1"></path></g></g></g></g><g transform="matrix(1,0,0,1,497.4998,2)"><g id="027" opacity="1" style="mix-blend-mode:normal"><g><g><path id="027_stroke_path" d="M0,105c26.193,-18.9669 24.45627,-29.6915 56.00027,-32.7968c21.028,-2.0702 53.86686,-34.5857 74.53186,-39.3215c19.466,-4.461 36.21604,-17.7344 54.11804,-26.05361c10.321,-4.79617 23.44799,-8.87637 34.89899,-5.70927c12.733,3.52208 24.36899,17.92618 32.96899,27.09898c13.166,14.0441 23.61002,30.3645 37.23102,43.9854c1.784,1.7847 14.48999,11.8854 13.10699,13.2681" fill="none" stroke="rgb(0, 0, 0)" stroke-width="4" stroke-linecap="round" stroke-linejoin="round" stroke-dasharray="0 0" stroke-opacity="1"></path></g></g></g></g><g transform="matrix(1,0,0,1,732.327,117.867)"><g id="028" opacity="1" style="mix-blend-mode:normal"><g><g><path id="028_stroke_path" d="M0,0c25.399,0 33.54998,18.37501 44.06598,38.92001c8.686,16.969 17.79097,34.49399 32.64697,46.95999c9.114,7.648 20.80904,11.92201 28.94904,20.74701c18.639,20.209 31.91102,46.35 46.31702,69.637c5.357,8.658 11.22499,16.572 17.85199,24.284c2.162,2.517 4.27801,4.79398 5.30701,7.88098" fill="none" stroke="rgb(0, 0, 0)" stroke-width="4" stroke-linecap="round" stroke-linejoin="round" stroke-dasharray="0 0" stroke-opacity="1"></path></g></g></g></g><g transform="matrix(1,0,0,1,799.9998,86)"><g id="029" opacity="1" style="mix-blend-mode:normal"><g><g><path id="029_stroke_path" d="M0,0c7.931,12.1288 4.89216,30.812 8.39716,44.331c2.867,11.057 8.42304,20.64501 11.57904,31.44101c3.028,10.359 2.43396,21.984 3.61896,32.64799c0.398,3.581 1.367,6.51001 1.367,10.29201" fill="none" stroke="rgb(0, 0, 0)" stroke-width="4" stroke-linecap="round" stroke-linejoin="round" stroke-dasharray="0 0" stroke-opacity="1"></path></g></g></g></g><g transform="matrix(1,0,0,1,164.215,280.6631)"><g id="030" opacity="1" style="mix-blend-mode:normal"><g><g><path id="030_stroke_path" d="M0,1.61191c0,12.318 0.47,24.60801 0.47,36.92301c0,1.444 -0.558,4.21901 0.052,5.59201c0.351,0.789 4.344,0.28699 4.965,0.28699c1.318,0 10.99801,0.667 11.41901,-1.228c1.029,-4.63 -0.007,-10.69999 -0.444,-15.33899c-0.666,-7.074 -0.538,-14.221 -0.47,-21.323c0.013,-1.379 1.603,-6.273 -0.575,-6.323c-1.573,-0.037 -5.89801,-0.80803 -6.48001,0.93997" fill="none" stroke="rgb(0, 0, 0)" stroke-width="4" stroke-linecap="round" stroke-linejoin="round" stroke-dasharray="0 0" stroke-opacity="1"></path></g></g></g></g><g transform="matrix(1,0,0,1,302.7347,288.86)"><g id="031" opacity="1" style="mix-blend-mode:normal"><g><g><path id="031_stroke_path" d="M0.23525,4.233c0,13.508 -0.94099,27.617 0.94101,41.026c0.525,3.74 -0.79201,5.894 3.13599,5.069c7.154,-1.501 14.35901,-0.21698 21.53201,-1.04498c0.688,-0.08 3.53898,-0.28401 3.91898,-1.04501c1.039,-2.077 0.04903,-6.94099 -0.10397,-9.04199c-0.784,-10.749 -3.57501,-20.332 -6.84601,-30.521c-0.484,-1.507 -0.49402,-8.67502 -1.83002,-8.67502c-5.764,0 -12.28199,0.38501 -17.92599,1.41101" fill="none" stroke="rgb(0, 0, 0)" stroke-width="4" stroke-linecap="round" stroke-linejoin="round" stroke-dasharray="0 0" stroke-opacity="1"></path></g></g></g></g><g transform="matrix(1,0,0,1,449.7229,278.512)"><g id="032" opacity="1" style="mix-blend-mode:normal"><g><g><path id="032_stroke_path" d="M0.47008,2.35202c0,6.367 0,12.73399 0,19.10199c0,4.895 0.15202,9.82 -0.10498,14.711c-0.048,0.918 -1.007,4.07499 0.392,4.46899c3.614,1.016 8.33399,0.08802 11.99399,-0.18298c3.754,-0.279 7.5,-0.76101 11.263,-0.91501c0.551,-0.022 2.26601,0.31599 2.32501,-0.60101c0.161,-2.484 0,-5.04 0,-7.526c0,-6.027 0.41398,-12.018 0.47098,-18.03c0.03,-3.243 0.41002,-6.82299 -0.47098,-9.98199c-0.596,-2.14 -0.95602,-3.397 -3.24002,-3.397c-7.605,0 -14.879,0.60602 -22.159,2.82202" fill="none" stroke="rgb(0, 0, 0)" stroke-width="4" stroke-linecap="round" stroke-linejoin="round" stroke-dasharray="0 0" stroke-opacity="1"></path></g></g></g></g><g transform="matrix(1,0,0,1,617.1184,273.373)"><g id="033" opacity="1" style="mix-blend-mode:normal"><g><g><path id="033_stroke_path" d="M0.05156,6.08003c0,10.565 0,21.13099 0,31.69699c0,3.346 -0.116,6.715 0,10.06c0.038,1.103 3.48299,0.15201 4.15399,0.13101c9.031,-0.287 18.03502,-0.49701 27.07202,-0.49701c2.861,0 7.76402,1.021 10.37402,-0.47c1.768,-1.01 -3.87402,-15.65698 -4.44202,-17.40298c-2.008,-6.175 -4.23303,-12.94102 -4.23303,-19.49402c0,-2.85 0.21803,-5.586 0.44403,-8.414c0.194,-2.425 -6.948,-1.53299 -8.284,-1.51599c-8.664,0.112 -16.45802,3.58101 -25.08502,2.14301" fill="none" stroke="rgb(0, 0, 0)" stroke-width="4" stroke-linecap="round" stroke-linejoin="round" stroke-dasharray="0 0" stroke-opacity="1"></path></g></g></g></g><g transform="matrix(1,0,0,1,129,115)"><g id="034" opacity="1" style="mix-blend-mode:normal"><g><g><path id="034_stroke_path" d="M3.05144,89.5c0,-7.42976 0,-33.75589 0,-41.18565c0,-5.42727 0.5196,-11.10981 -0.50412,-16.45591c-0.81609,-4.2618 -0.21323,-9.85998 -1.94446,-13.75525c-2.34811,-5.28324 2.67027,-3.50029 6.3375,-5.18523c5.14728,-2.36497 10.69484,-6.61044 15.19246,-10.20853c1.35435,-1.08348 8.64519,-6.99982 8.46515,3.07884c1.71713,0 0.88087,0.77432 0.18004,2.73665c-1.87824,5.25908 -1.15227,11.10741 -1.15227,16.70796c0,7.63789 0.97223,21.80137 0.97223,29.26712" fill="none" stroke="rgb(0, 0, 0)" stroke-width="4" stroke-linecap="round" stroke-linejoin="round" stroke-dasharray="0 0" stroke-opacity="1"></path></g></g></g></g><g transform="matrix(1,0,0,1,131.7888,84.3005)"><g id="035" opacity="1" style="mix-blend-mode:normal"><g><g><path id="035_stroke_path" d="M0,0" fill="none" stroke="rgb(0, 0, 0)" stroke-width="4" stroke-linecap="round" stroke-linejoin="round" stroke-dasharray="0 0" stroke-opacity="1"></path></g></g></g></g></g></g></g></g><animate href="#035_stroke_path" attributeName="d" values="M0,0;M2.10729,40.89034c0.16947,0.19398 0.35257,0.39077 0.55031,0.59148;M1.6716,40.27367c0.28867,0.39252 0.63038,0.79189 1.03412,1.20815;M1.31107,39.62287c0.3559,0.60398 0.82623,1.211 1.44444,1.85895;M1.03208,38.92542c0.37124,0.84072 0.93386,1.65934 1.77502,2.5564;M0.8381,38.15979c0.33727,1.12206 0.94875,2.15575 2.02251,3.32203;M0.73247,37.30124c0.26011,1.47376 0.86818,2.72372 2.18371,4.18058;M0.71289,36.30188c0.14983,1.93841 0.69144,3.40575 2.26098,5.17994;M0.77491,35.10579c0.02458,2.57275 0.42313,4.25515 2.25892,6.37603;M0.90592,33.62686c-0.00092,0.02563 -0.00169,0.05133 -0.00232,0.07712v0c-0.08247,3.41302 0.0928,5.29496 2.19265,7.77784;M1.2467,32.14904c-0.13133,0.48655 -0.21155,1.00211 -0.22458,1.55494v0c-0.08046,3.41302 0.09053,5.29496 2.13909,7.77784;M1.92505,30.68029c-0.44724,0.89728 -0.75309,1.88085 -0.77933,3.02369v0c-0.07836,3.41302 0.08817,5.29496 2.08323,7.77784;M2.9022,29.19025c-0.86786,1.29877 -1.58724,2.70728 -1.62755,4.51373v0c-0.07616,3.41302 0.0857,5.29496 2.02496,7.77784;M4.0735,27.60954c-1.23478,1.77904 -2.60881,3.53838 -2.66414,6.09444v0c-0.07387,3.41302 0.08313,5.29496 1.96408,7.77784;M5.23086,25.82643c-0.19226,0.34157 -0.38971,0.67526 -0.59244,0.99992v0c-1.28967,2.06538 -3.02685,3.94831 -3.0882,6.87763v0c-0.07148,3.41302 0.08043,5.29496 1.90043,7.77784;M6.29794,23.70219c-0.4959,1.10171 -1.03537,2.1533 -1.62032,3.12416v0c-1.24441,2.06538 -2.92063,3.94831 -2.97983,6.87763v0c-0.06897,3.41302 0.07761,5.29496 1.83374,7.77784;M7.23035,21.29127c-0.71545,1.97903 -1.54959,3.87506 -2.51163,5.53508v0c-1.19697,2.06538 -2.80928,3.94831 -2.86622,6.87763v0c-0.06634,3.41302 0.07465,5.29496 1.76383,7.77784;M7.97211,18.76942c-0.84,2.86942 -1.90166,5.70089 -3.21025,8.05693v0c-1.14715,2.06538 -2.69237,3.94831 -2.74695,6.87763v0c-0.06358,3.41302 0.07154,5.29496 1.69043,7.77784;M8.51311,16.29283c-0.02521,0.10012 -0.05059,0.20244 -0.07608,0.3071v0c-0.87209,3.58166 -2.06624,7.27666 -3.62979,10.22642v0c-1.09477,2.06538 -2.56944,3.94831 -2.62152,6.87763v0c-0.06068,3.41302 0.06828,5.29496 1.61324,7.77784;M8.921,14.08479c-0.16022,0.71032 -0.38503,1.50286 -0.61909,2.51514v0c-0.82815,3.58166 -1.96213,7.27666 -3.4469,10.22642v0c-1.03961,2.06538 -2.43997,3.94831 -2.48943,6.87763v0c-0.05762,3.41302 0.06484,5.29496 1.53196,7.77784;M8.96148,12.51305c-0.04432,1.18289 -0.40941,2.28788 -0.80209,4.08688v0c-0.78179,3.58166 -1.85231,7.27666 -3.25397,10.22642v0c-0.98142,2.06538 -2.3034,3.94831 -2.35009,6.87763v0c-0.0544,3.41302 0.06121,5.29496 1.44621,7.77784;M8.66768,11.11803c0.30306,1.85066 -0.1535,3.01241 -0.65879,5.4819v0c-0.73285,3.58166 -1.73634,7.27666 -3.05025,10.22642v0c-0.91998,2.06538 -2.15919,3.94831 -2.20296,6.87763v0c-0.05099,3.41302 0.05738,5.29496 1.35567,7.77784;M8.14468,9.69732c0.79294,2.80359 0.28331,3.86147 -0.29498,6.90261v0c-0.68108,3.58166 -1.61368,7.27666 -2.83477,10.22642v0c-0.85499,2.06538 -2.00666,3.94831 -2.04733,6.87763v0c-0.04739,3.41302 0.05332,5.29496 1.2599,7.77784;M7.56202,8.38026c0.04099,0.12267 0.08073,0.24591 0.11906,0.36981v0c1.09823,3.55019 0.58768,4.48875 0,7.84986v0c-0.62624,3.58166 -1.48375,7.27666 -2.60652,10.22642v0c-0.78615,2.06538 -1.84509,3.94831 -1.88249,6.87763v0c-0.04357,3.41302 0.04903,5.29496 1.15845,7.77784;M7.09617,7.46915c0.14708,0.4215 0.28445,0.84712 0.40618,1.28092v0c0.99629,3.55019 0.53313,4.48875 0,7.84986v0c-0.56811,3.58166 -1.34603,7.27666 -2.36459,10.22642v0c-0.71318,2.06538 -1.67383,3.94831 -1.70776,6.87763v0c-0.03953,3.41302 0.04448,5.29496 1.05093,7.77784;M6.69486,6.67927c0.22772,0.68027 0.4413,1.36469 0.61795,2.0708v0c0.88818,3.55019 0.47528,4.48875 0,7.84986v0c-0.50647,3.58166 -1.19997,7.27666 -2.10801,10.22642v0c-0.63579,2.06538 -1.49221,3.94831 -1.52245,6.87763v0c-0.03524,3.41302 0.03965,5.29496 0.93689,7.77784;M6.3681,5.98711c0.27381,0.91018 0.53758,1.81712 0.74367,2.76296v0c0.77352,3.55019 0.41392,4.48875 0,7.84986v0c-0.44108,3.58166 -1.04506,7.27666 -1.83588,10.22642v0c-0.55371,2.06538 -1.29957,3.94831 -1.32591,6.87763v0c-0.03069,3.41302 0.03453,5.29496 0.81595,7.77784;M6.11468,5.36941c0.28512,1.12018 0.57117,2.22119 0.78413,3.38066v0c0.65207,3.55019 0.34893,4.48875 0,7.84986v0c-0.37183,3.58166 -0.88098,7.27666 -1.54763,10.22642v0c-0.46678,2.06538 -1.09552,3.94831 -1.11773,6.87763v0c-0.02587,3.41302 0.02911,5.29496 0.68783,7.77784;M5.93254,4.8209c0.26412,1.31204 0.54233,2.58109 0.74119,3.92917v0c0.5237,3.55019 0.28024,4.48875 0,7.84986v0c-0.29863,3.58166 -0.70755,7.27666 -1.24296,10.22642v0c-0.37489,2.06538 -0.87986,3.94831 -0.89769,6.87763v0c-0.02078,3.41302 0.02338,5.29496 0.55242,7.77784;M5.81331,4.32185c0.21653,1.49204 0.45742,2.91001 0.62363,4.42822v0c0.38865,3.55019 0.20797,4.48875 0,7.84986v0c-0.22162,3.58166 -0.52508,7.27666 -0.92242,10.22642v0c-0.27821,2.06538 -0.65296,3.94831 -0.66619,6.87763v0c-0.01542,3.41302 0.01735,5.29496 0.40997,7.77784;M5.75123,3.86899c0.14763,1.66053 0.32173,3.21009 0.43822,4.88108v0c0.24749,3.55019 0.13244,4.48875 0,7.84986v0c-0.14113,3.58166 -0.33437,7.27666 -0.5874,10.22642v0c-0.17716,2.06538 -0.4158,3.94831 -0.42423,6.87763v0c-0.00982,3.41302 0.01105,5.29496 0.26107,7.77784;M5.73903,3.4555c0.06324,1.8191 0.14252,3.48568 0.19415,5.29457v0c0.10134,3.55019 0.05423,4.48875 0,7.84986v0c-0.05779,3.58166 -0.13691,7.27666 -0.24051,10.22642v0c-0.07254,2.06538 -0.17025,3.94831 -0.1737,6.87763v0c-0.00402,3.41302 0.00452,5.29496 0.10689,7.77784;M5.76936,3.08309c-0.03092,1.96605 -0.07215,3.73538 -0.09839,5.66698v0c-0.04821,3.55019 -0.0258,4.48875 0,7.84986v0c0.02749,3.58166 0.06514,7.27666 0.11443,10.22642v0c0.03451,2.06538 0.081,3.94831 0.08264,6.87763v0c0.00191,3.41302 -0.00215,5.29496 -0.05086,7.77784;M5.8343,2.74118c-0.12945,2.10459 -0.31323,3.96599 -0.42776,6.00889v0c-0.19902,3.55019 -0.1065,4.48875 0,7.84986v0c0.11349,3.58166 0.26889,7.27666 0.47236,10.22642v0c0.14247,2.06538 0.33437,3.94831 0.34115,6.87763v0c0.0079,3.41302 -0.00889,5.29496 -0.20994,7.77784;M5.92645,2.42738c-0.22759,2.23488 -0.57178,4.17884 -0.78235,6.32269v0c-0.3487,3.55019 -0.1866,4.48875 0,7.84986v0c0.19884,3.58166 0.47111,7.27666 0.82761,10.22642v0c0.24961,2.06538 0.58584,3.94831 0.59772,6.87763v0c0.01383,3.41302 -0.01557,5.29496 -0.36783,7.77784;M6.03802,2.14351c-0.32144,2.35541 -0.83882,4.37245 -1.15026,6.60656v0c-0.4949,3.55019 -0.26483,4.48875 0,7.84986v0c0.28221,3.58166 0.66863,7.27666 1.17459,10.22642v0c0.35427,2.06538 0.83146,3.94831 0.84832,6.87763v0c0.01964,3.41302 -0.02209,5.29496 -0.52204,7.77784;M6.16135,1.89124c-0.40829,2.46468 -1.10608,4.54537 -1.52026,6.85883v0c-0.63559,3.55019 -0.34011,4.48875 0,7.84986v0c0.36243,3.58166 0.85871,7.27666 1.5085,10.22642v0c0.45498,2.06538 1.06783,3.94831 1.08947,6.87763v0c0.02522,3.41302 -0.02838,5.29496 -0.67045,7.77784;M6.29203,1.65894c-0.48635,2.56711 -1.36843,4.70535 -1.88542,7.09113v0c-0.76932,3.55019 -0.41167,4.48875 0,7.84986v0c0.43869,3.58166 1.03938,7.27666 1.82589,10.22642v0c0.5507,2.06538 1.2925,3.94831 1.3187,6.87763v0c0.03052,3.41302 -0.03435,5.29496 -0.81151,7.77784;M6.42335,1.45627c-0.55539,2.65791 -1.62011,4.84551 -2.23747,7.2938v0c-0.89521,3.55019 -0.47904,4.48875 0,7.84986v0c0.51047,3.58166 1.20947,7.27666 2.12468,10.22642v0c0.64082,2.06538 1.50401,3.94831 1.53449,6.87763v0c0.03552,3.41302 -0.03997,5.29496 -0.9443,7.77784;M6.55288,1.27522c-0.61538,2.74015 -1.85901,4.97119 -2.57332,7.47485v0c-1.01288,3.55019 -0.54201,4.48875 0,7.84986v0c0.57757,3.58166 1.36845,7.27666 2.40397,10.22642v0c0.72505,2.06538 1.70171,3.94831 1.7362,6.87763v0c0.04019,3.41302 -0.04522,5.29496 -1.06843,7.77784;M6.67875,1.11184c-0.66677,2.81529 -2.08398,5.085 -2.89117,7.63823v0c-1.12237,3.55019 -0.6006,4.48875 0,7.84986v0c0.64001,3.58166 1.51638,7.27666 2.66384,10.22642v0c0.80343,2.06538 1.88566,3.94831 1.92388,6.87763v0c0.04453,3.41302 -0.05011,5.29496 -1.18393,7.77784;M6.79689,0.97519c-0.71166,2.87879 -2.29303,5.18047 -3.18752,7.77488v0c-1.22401,3.55019 -0.65499,4.48875 0,7.84986v0c0.69797,3.58166 1.65369,7.27666 2.90506,10.22642v0c0.87619,2.06538 2.05642,3.94831 2.0981,6.87763v0c0.04856,3.41302 -0.05464,5.29496 -1.29114,7.77784;M6.90914,0.8522c-0.75001,2.93647 -2.48796,5.26662 -3.46498,7.89787v0c-1.31824,3.55019 -0.70541,4.48875 0,7.84986v0c0.7517,3.58166 1.781,7.27666 3.1287,10.22642v0c0.94364,2.06538 2.21473,3.94831 2.25962,6.87763v0c0.0523,3.41302 -0.05885,5.29496 -1.39053,7.77784;M7.01246,0.75176c-0.78433,2.98394 -2.66784,5.33713 -3.72146,7.99831v0c-1.40559,3.55019 -0.75215,4.48875 0,7.84986v0c0.80151,3.58166 1.89901,7.27666 3.33602,10.22642v0c1.00617,2.06538 2.36148,3.94831 2.40935,6.87763v0c0.05577,3.41302 -0.06275,5.29496 -1.48267,7.77784;M7.10866,0.66504c-0.81467,3.02519 -2.8346,5.39812 -3.95973,8.08503v0c-1.48662,3.55019 -0.79551,4.48875 0,7.84986v0c0.84771,3.58166 2.00849,7.27666 3.52834,10.22642v0c1.06417,2.06538 2.49762,3.94831 2.54824,6.87763v0c0.05898,3.41302 -0.06637,5.29496 -1.56815,7.77784;M7.19633,0.59643c-0.84299,3.058 -2.98836,5.44645 -4.17937,8.15364v0c-1.56189,3.55019 -0.83579,4.48875 0,7.84986v0c0.89063,3.58166 2.11018,7.27666 3.70697,10.22642v0c1.11805,2.06538 2.62407,3.94831 2.67726,6.87763v0c0.06197,3.41302 -0.06973,5.29496 -1.64754,7.77784;M7.27654,0.54144c-0.86956,3.0844 -3.13045,5.48523 -4.38227,8.20863v0c-1.63186,3.55019 -0.87323,4.48875 0,7.84986v0c0.93053,3.58166 2.20471,7.27666 3.87304,10.22642v0c1.16814,2.06538 2.74163,3.94831 2.7972,6.87763v0c0.06474,3.41302 -0.07285,5.29496 -1.72135,7.77784;M7.35061,0.49561c-0.89431,3.10649 -3.26234,5.51759 -4.57059,8.25446v0c-1.69702,3.55019 -0.9081,4.48875 0,7.84986v0c0.96769,3.58166 2.29275,7.27666 4.02771,10.22642v0c1.21479,2.06538 2.85111,3.94831 2.9089,6.87763v0c0.06733,3.41302 -0.07576,5.29496 -1.79009,7.77784;M7.41602,0.46768c-0.91993,3.11998 -3.38343,5.53732 -4.7426,8.28239v0c-1.75781,3.55019 -0.94063,4.48875 0,7.84986v0c1.00235,3.58166 2.37488,7.27666 4.17199,10.22642v0c1.2583,2.06538 2.95324,3.94831 3.0131,6.87763v0c0.06974,3.41302 -0.07848,5.29496 -1.85422,7.77784;M7.4754,0.44875c-0.94509,3.12914 -3.49561,5.5507 -4.90152,8.30132v0c-1.81459,3.55019 -0.97101,4.48875 0,7.84986v0c1.03473,3.58166 2.45159,7.27666 4.30674,10.22642v0c1.29895,2.06538 3.04863,3.94831 3.11042,6.87763v0c0.07199,3.41302 -0.08101,5.29496 -1.9141,7.77784;M7.52749,0.44314c-0.97136,3.13185 -3.59882,5.55467 -5.04675,8.30693v0c-1.86771,3.55019 -0.99944,4.48875 0,7.84986v0c1.06502,3.58166 2.52336,7.27666 4.43282,10.22642v0c1.33697,2.06538 3.13788,3.94831 3.20148,6.87763v0c0.0741,3.41302 -0.08338,5.29496 -1.97014,7.77784;M7.57784,0.43326c-0.9947,3.13664 -3.69626,5.56166 -5.18433,8.31681v0c-1.91746,3.55019 -1.02606,4.48875 0,7.84986v0c1.09339,3.58166 2.59058,7.27666 4.5509,10.22642v0c1.37259,2.06538 3.22147,3.94831 3.28676,6.87763v0c0.06772,3.03811 -0.05295,4.86303 -1.44652,6.97855;M7.62536,0.42347c-1.01633,3.14138 -3.78783,5.56858 -5.31369,8.3266v0c-1.96414,3.55019 -1.05104,4.48875 0,7.84986v0c1.12001,3.58166 2.65364,7.27666 4.66168,10.22642v0c1.406,2.06538 3.29988,3.94831 3.36677,6.87763v0c0.06078,2.66194 -0.02659,4.39253 -1.00936,6.20326;M7.67027,0.41379c-1.03638,3.14608 -3.87392,5.57543 -5.43543,8.33628v0c-2.00795,3.55019 -1.07449,4.48875 0,7.84986v0c1.14499,3.58166 2.71283,7.27666 4.76567,10.22642v0c1.43736,2.06538 3.3735,3.94831 3.44187,6.87763v0c0.05333,2.28463 -0.0049,3.88321 -0.65764,5.43522;M7.71278,0.4042c-1.05498,3.15073 -3.95502,5.58221 -5.55019,8.34587v0c-2.04916,3.55019 -1.09654,4.48875 0,7.84986v0c1.16849,3.58166 2.76851,7.27666 4.86347,10.22642v0c1.46686,2.06538 3.44273,3.94831 3.51251,6.87763v0c0.04541,1.90624 0.01156,3.33487 -0.38784,4.65734;M7.75306,0.3947c-1.07224,3.15535 -4.03146,5.58894 -5.65846,8.35537v0c-2.08794,3.55019 -1.11729,4.48875 0,7.84986v0c1.1906,3.58166 2.82089,7.27666 4.9555,10.22642v0c1.49462,2.06538 3.50788,3.94831 3.57897,6.87763v0c0.03706,1.52687 0.02231,2.74731 -0.19417,3.85221;M7.79124,0.38527c-1.08824,3.15993 -4.10357,5.59561 -5.76066,8.3648v0c-2.12445,3.55019 -1.13683,4.48875 0,7.84986v0c1.21142,3.58166 2.87022,7.27666 5.04216,10.22642v0c1.52076,2.06538 3.56922,3.94831 3.64156,6.87763v0c0.02832,1.14658 0.0269,2.12037 -0.06883,3.00219;M7.82751,0.37591c-1.10311,3.16448 -4.1717,5.60224 -5.85732,8.37416v0c-2.15889,3.55019 -1.15526,4.48875 0,7.84986v0c1.23106,3.58166 2.91676,7.27666 5.1239,10.22642v0c1.54541,2.06538 3.62708,3.94831 3.7006,6.87763v0c0.01921,0.76545 0.02495,1.4539 -0.00229,2.08938;M7.86196,0.36662c-1.11688,3.169 -4.23606,5.60882 -5.94871,8.38345v0c-2.19137,3.55019 -1.17264,4.48875 0,7.84986v0c1.24958,3.58166 2.96063,7.27666 5.20098,10.22642v0c1.56866,2.06538 3.68164,3.94831 3.75627,6.87763v0c0.00977,0.38356 0.01611,0.74778 0.01652,1.09569;M7.89474,0.35739c-1.12966,3.1735 -4.29694,5.61535 -6.03524,8.39268v0c-2.22203,3.55019 -1.18904,4.48875 0,7.84986v0c1.26706,3.58166 3.00206,7.27666 5.27376,10.22642v0c1.59061,2.06538 3.73316,3.94831 3.80882,6.87763v0c0.00002,0.00095 0.00005,0.00189 0.00007,0.00284;M7.92591,0.34822c-1.1415,3.17797 -4.35453,5.62185 -6.11719,8.40185v0c-2.25098,3.55019 -1.20454,4.48875 0,7.84986v0c1.28357,3.58166 3.04118,7.27666 5.34247,10.22642v0c1.42296,1.82393 3.28196,3.50557 3.74996,5.89121;M7.95559,0.3391c-1.15246,3.18241 -4.40905,5.62831 -6.19482,8.41097v0c-2.27834,3.55019 -1.21917,4.48875 0,7.84986v0c1.29917,3.58166 3.07813,7.27666 5.40739,10.22642v0c1.2494,1.58224 2.83094,3.05741 3.53737,4.97798;M7.98388,0.33002c-1.1626,3.18684 -4.46069,5.63474 -6.26845,8.42005v0c-2.30419,3.55019 -1.23301,4.48875 0,7.84986v0c1.31392,3.58166 3.11306,7.27666 5.46876,10.22642v0c1.07085,1.3409 2.38295,2.6049 3.19315,4.12827;M8.01084,0.32099c-1.17195,3.19125 -4.50962,5.64114 -6.33828,8.42908v0c-2.32864,3.55019 -1.24609,4.48875 0,7.84986v0c1.32786,3.58166 3.14609,7.27666 5.52679,10.22642v0c0.88769,1.09988 1.93941,2.14802 2.7407,3.33;M8.03657,0.31201c-1.18059,3.19563 -4.55599,5.64751 -6.40455,8.43806v0c-2.35177,3.55019 -1.25847,4.48875 0,7.84986v0c1.34104,3.58166 3.17734,7.27666 5.58167,10.22642v0c0.70029,0.85915 1.50166,1.68673 2.20461,2.57119;M8.0611,0.30306c-1.18854,3.20001 -4.59993,5.65386 -6.46742,8.44701v0c-2.37363,3.55019 -1.27017,4.48875 0,7.84986v0c1.35351,3.58166 3.20688,7.27666 5.63356,10.22642v0c0.50898,0.6187 1.07087,1.22102 1.61048,1.84;M8.08453,0.29414c-1.19584,3.20437 -4.64162,5.66018 -6.52713,8.45593v0c-2.39432,3.55019 -1.28124,4.48875 0,7.84986v0c1.36531,3.58166 3.23483,7.27666 5.68267,10.22642v0c0.31409,0.37849 0.64815,0.75086 0.98482,1.12466;M8.10688,0.28526c-1.20252,3.20871 -4.68107,5.66648 -6.58373,8.46481v0c-2.41386,3.55019 -1.29169,4.48875 0,7.84986v0c1.37645,3.58166 3.26122,7.27666 5.72904,10.22642v0c0.11589,0.13852 0.23448,0.27623 0.3549,0.41348;M8.12823,0.2764c-1.20862,3.21305 -4.71851,5.67276 -6.6375,8.47367v0c-2.43235,3.55019 -1.30159,4.48875 0,7.84986v0c1.33954,3.45914 3.15687,7.024 5.51979,9.92112;M8.14862,0.26758c-1.21417,3.21737 -4.75399,5.67902 -6.68855,8.48249v0c-2.44984,3.55019 -1.31094,4.48875 0,7.84986v0c1.23604,3.16907 2.87597,6.42687 4.97231,9.17866;M8.1681,0.25878c-1.2192,3.22168 -4.78763,5.68527 -6.73701,8.49129v0c-2.46636,3.55019 -1.31979,4.48875 0,7.84986v0c1.13049,2.87904 2.59658,5.8313 4.43791,8.41087;M8.1867,0.25c-1.22373,3.22599 -4.81948,5.6915 -6.78298,8.50007v0c-2.48197,3.55019 -1.32814,4.48875 0,7.84986v0c1.02306,2.58904 2.31923,5.23731 3.91752,7.6205;M8.20448,0.24125c-1.22778,3.23028 -4.84964,5.69771 -6.82659,8.50882v0c-2.4967,3.55019 -1.33602,4.48875 0,7.84986v0c0.91388,2.29909 2.0444,4.64489 3.41199,6.8103;M8.22141,0.23251c-1.23138,3.23457 -4.87814,5.70391 -6.86786,8.51756v0c-2.51058,3.55019 -1.34345,4.48875 0,7.84986v0c0.80308,2.00918 1.77252,4.05403 2.92206,5.98299;M8.23763,0.22379c-1.23454,3.23885 -4.90514,5.7101 -6.90706,8.52628v0c-2.52369,3.55019 -1.35047,4.48875 0,7.84986v0c0.6908,1.71931 1.50407,3.46473 2.44844,5.1413;M8.25309,0.21509c-1.2373,3.24313 -4.93066,5.71628 -6.94416,8.53498v0c-2.53604,3.55019 -1.35707,4.48875 0,7.84986v0c0.57716,1.42947 1.23939,2.877 1.99167,4.28799;M8.26622,0.21069c-1.2413,3.24529 -4.95401,5.71941 -6.97765,8.53938v0c-2.54765,3.55019 -1.36329,4.48875 0,7.84986v0c0.46166,1.13821 0.97751,2.28787 1.55007,3.42141;M8.28031,0.20202c-1.2433,3.24956 -4.97679,5.72557 -7.01091,8.54805v0c-2.55858,3.55019 -1.36914,4.48875 0,7.84986v0c0.34561,0.84844 0.72146,1.70325 1.12859,2.553;M8.29375,0.19336c-1.24495,3.25382 -4.99822,5.73173 -7.04232,8.55671v0c-2.56883,3.55019 -1.37462,4.48875 0,7.84986v0c0.2285,0.55871 0.47017,1.12018 0.7253,1.68115;M8.30656,0.18471c-1.24624,3.25808 -5.01842,5.73787 -7.07198,8.56536v0c-2.57844,3.55019 -1.37976,4.48875 0,7.84986v0c0.11043,0.26901 0.22393,0.53867 0.34052,0.80859;M8.31876,0.17607c-1.24721,3.26233 -5.0374,5.74401 -7.09994,8.574v0c-2.56644,3.52139 -1.40384,4.47335 -0.03366,7.76854;M8.33039,0.16745c-1.24786,3.26659 -5.05525,5.75014 -7.12632,8.58262v0c-2.27935,3.11734 -1.62681,4.22106 -0.49339,6.71938;M8.34144,0.15883c-1.2482,3.27084 -5.07194,5.75627 -7.15107,8.59124v0c-1.9897,2.71304 -1.75202,3.9009 -0.9075,5.81026;M8.35198,0.15022c-1.24826,3.27509 -5.08763,5.76239 -7.17442,8.59985v0c-1.69777,2.30851 -1.77835,3.51276 -1.24289,4.99685;M8.36197,0.14162c-1.24802,3.27934 -5.10222,5.76851 -7.19624,8.60845v0c-1.40374,1.90378 -1.70479,3.05656 -1.4661,4.23463;M8.37145,0.13302c-1.24751,3.28358 -5.11582,5.77463 -7.21665,8.61705v0c-1.10783,1.4989 -1.5305,2.53226 -1.5434,3.47896;M8.38046,0.12443c-1.24676,3.28783 -5.12848,5.78074 -7.23577,8.62564v0c-0.81025,1.09386 -1.25479,1.93979 -1.44091,2.68504;M8.38898,0.11584c-1.24574,3.29208 -5.14019,5.78685 -7.25354,8.63423v0c-0.51117,0.68871 -0.87707,1.27914 -1.12454,1.80803;M8.39703,0.10725c-1.24448,3.29633 -5.15097,5.79296 -7.27001,8.64282v0c-0.21078,0.28347 -0.3969,0.55028 -0.56024,0.80301;M8.40465,0.09867c-1.21093,3.21545 -4.96058,5.66966 -7.11742,8.43138;M8.41184,0.09009c-1.10292,2.93648 -4.32761,5.23782 -6.52656,7.71702;M8.41859,0.08151c-0.99528,2.65745 -3.73163,4.79453 -5.87604,7.01302;M8.42493,0.07294c-0.88807,2.37834 -3.17314,4.3397 -5.18299,6.31495;M8.43088,0.06436c-0.78132,2.09913 -2.65265,3.8733 -4.46455,5.61838;M8.43645,0.05578c-0.67509,1.81979 -2.1706,3.39526 -3.7379,4.91893;M8.44163,0.04721c-0.56941,1.54031 -1.72739,2.90552 -3.02019,4.21222;M8.44644,0.03863c-0.46434,1.26068 -1.32341,2.40402 -2.32862,3.49386;M8.45091,0.03005c-0.35991,0.98088 -0.95904,1.89069 -1.68038,2.75948;M8.455,0.02147c-0.25616,0.70089 -0.63457,1.36548 -1.09259,2.00472;M8.45879,0.01288c-0.15313,0.4207 -0.35034,0.82831 -0.58242,1.22521;M8.4622,0.0043c-0.05085,0.14029 -0.1066,0.27912 -0.16692,0.41659;M0,0;M0,0;M0,0;M0,0;M0,0;M0,0;M0,0;M0,0;M0,0;M0,0;M0,0;M0,0;M0,0;M0,0;M0,0;M0,0;M0,0;M0,0;M0,0;M0,0;M0,0;M0,0;M0,0;M0,0;M0,0" dur="2.5s" repeatCount="indefinite" keyTimes="0;0.008;0.016;0.024;0.032;0.04;0.048;0.056;0.064;0.072;0.08;0.088;0.096;0.104;0.112;0.12;0.128;0.136;0.144;0.152;0.16;0.168;0.176;0.184;0.192;0.2;0.208;0.216;0.224;0.232;0.24;0.248;0.256;0.264;0.272;0.28;0.288;0.296;0.304;0.312;0.32;0.328;0.336;0.344;0.352;0.36;0.368;0.376;0.384;0.392;0.4;0.408;0.416;0.424;0.432;0.44;0.448;0.456;0.464;0.472;0.48;0.488;0.496;0.504;0.512;0.52;0.528;0.536;0.544;0.552;0.56;0.568;0.576;0.584;0.592;0.6;0.608;0.616;0.624;0.632;0.64;0.648;0.656;0.664;0.672;0.68;0.688;0.696;0.704;0.712;0.72;0.728;0.736;0.744;0.752;0.76;0.768;0.776;0.784;0.792;0.8;0.808;0.816;0.824;0.832;0.84;0.848;0.856;0.864;0.872;0.88;0.888;0.896;0.904;0.912;0.92;0.928;0.936;0.944;0.952;0.96;0.968;0.976;0.984;0.992;1" fill="freeze"></animate><animateTransform href="#035" attributeName="transform" type="translate" values="0 0;-0.998800000000017 -45.0005;-0.998800000000017 -45.0005" dur="2.5s" repeatCount="indefinite" calcMode="spline" keyTimes="0;0.8;1" keySplines="0.5 0.35 0.15 1;0.5 0.35 0.15 1" additive="sum" fill="freeze"></animateTransform></svg>