<svg width="161" height="161" viewBox="0 0 161 161" fill="none" xmlns="http://www.w3.org/2000/svg">
<rect x="0.5" y="0.5" width="160" height="160" rx="16.1616" fill="#7AC899"/>
<path d="M80.6921 61.05C85.9283 61.05 90.1731 56.8053 90.1731 51.5691C90.1731 46.3329 85.9283 42.0881 80.6921 42.0881C75.4559 42.0881 71.2112 46.3329 71.2112 51.5691C71.2112 56.8053 75.4559 61.05 80.6921 61.05Z" fill="#1C1B1B"/>
<path fill-rule="evenodd" clip-rule="evenodd" d="M25.2812 64.2343V25.8198H136.103V64.2343C136.103 95.7684 131.505 124.054 102.76 137.021C96.4942 139.848 89.1831 142.365 80.6921 144.338C72.2011 142.365 64.89 139.848 58.6242 137.021C29.8795 124.054 25.2812 95.7684 25.2812 64.2343ZM35.2049 58.7362V35.0973H127.257V58.7362C127.257 75.2535 125.164 92.728 119.344 106.959L115.034 79.8111L103.657 67.8584L91.2265 78.9056V66.0473H70.1577V78.9056L57.7272 67.8584L46.35 79.8111L42.0403 106.959C36.2199 92.728 35.2049 75.2535 35.2049 58.7362ZM60.4661 90.8583H52.8813V99.9134H60.4661V90.8583ZM108.503 90.8583H100.918V99.9134H108.503V90.8583ZM60.4661 103.898H52.8813V112.953H60.4661V103.898ZM108.503 103.898H100.918V112.953H108.503V103.898ZM60.2554 87.5967C62.3499 87.5967 64.0478 85.8988 64.0478 83.8043C64.0478 81.7098 62.3499 80.0119 60.2554 80.0119C58.1609 80.0119 56.463 81.7098 56.463 83.8043C56.463 85.8988 58.1609 87.5967 60.2554 87.5967ZM97.1258 83.7846C97.1258 85.879 98.8237 87.5769 100.918 87.5769C103.013 87.5769 104.711 85.879 104.711 83.7846C104.711 81.6901 103.013 79.9922 100.918 79.9922C98.8237 79.9922 97.1258 81.6901 97.1258 83.7846ZM84.2738 105.294H77.5318V119.621H84.2738V105.294Z" fill="#1C1B1B"/>
</svg>
