<svg width="210" height="209" viewBox="0 0 210 209" fill="none" xmlns="http://www.w3.org/2000/svg">
<rect width="210" height="209" fill="#9ADCF0"/>
<path d="M105.692 85.05C110.928 85.05 115.173 80.8053 115.173 75.5691C115.173 70.3329 110.928 66.0881 105.692 66.0881C100.456 66.0881 96.2112 70.3329 96.2112 75.5691C96.2112 80.8053 100.456 85.05 105.692 85.05Z" fill="#1C1B1B"/>
<path fill-rule="evenodd" clip-rule="evenodd" d="M50.2812 88.2343V49.8198H161.103V88.2343C161.103 119.768 156.505 148.054 127.76 161.021C121.494 163.848 114.183 166.365 105.692 168.338C97.2011 166.365 89.89 163.848 83.6242 161.021C54.8795 148.054 50.2812 119.768 50.2812 88.2343ZM60.2049 82.7362V59.0973H152.257V82.7362C152.257 99.2535 150.164 116.728 144.344 130.959L140.034 103.811L128.657 91.8584L116.227 102.906V90.0473H95.1577V102.906L82.7272 91.8584L71.35 103.811L67.0403 130.959C61.2199 116.728 60.2049 99.2535 60.2049 82.7362ZM85.4661 114.858H77.8813V123.913H85.4661V114.858ZM133.503 114.858H125.918V123.913H133.503V114.858ZM85.4661 127.898H77.8813V136.953H85.4661V127.898ZM133.503 127.898H125.918V136.953H133.503V127.898ZM85.2554 111.597C87.3499 111.597 89.0478 109.899 89.0478 107.804C89.0478 105.71 87.3499 104.012 85.2554 104.012C83.1609 104.012 81.463 105.71 81.463 107.804C81.463 109.899 83.1609 111.597 85.2554 111.597ZM122.126 107.785C122.126 109.879 123.824 111.577 125.918 111.577C128.013 111.577 129.711 109.879 129.711 107.785C129.711 105.69 128.013 103.992 125.918 103.992C123.824 103.992 122.126 105.69 122.126 107.785ZM109.274 129.294H102.532V143.621H109.274V129.294Z" fill="#1C1B1B"/>
</svg>
