<svg width="696" height="220" viewBox="0 0 696 220" fill="none" xmlns="http://www.w3.org/2000/svg">
<path d="M351.128 73.0507C351.128 77.4242 350.304 81.2657 348.655 84.5753C347.007 87.8849 344.789 90.6233 342.002 92.7903C338.704 95.3907 335.073 97.2425 331.109 98.3457C327.183 99.4489 322.178 100.001 316.094 100.001H281V12H311.972C318.41 12 323.277 12.2561 326.575 12.7683C329.911 13.2411 333.032 14.2655 335.937 15.8415C339.077 17.5357 341.413 19.8013 342.944 22.6381C344.514 25.4749 345.299 28.7451 345.299 32.4487C345.299 36.7434 344.22 40.5652 342.061 43.9142C339.941 47.2633 336.997 49.7258 333.228 51.3018V51.7746C338.645 52.9172 342.983 55.2615 346.241 58.8075C349.499 62.3142 351.128 67.0619 351.128 73.0507ZM322.924 36.8813C322.924 35.4629 322.551 34.0051 321.805 32.5078C321.099 31.0106 319.98 29.9271 318.449 29.2573C316.996 28.6269 315.269 28.292 313.267 28.2526C311.305 28.1738 308.36 28.1344 304.435 28.1344H302.904V46.751H305.672C309.44 46.751 312.07 46.7116 313.562 46.6328C315.093 46.554 316.663 46.1403 318.272 45.3917C320.039 44.5643 321.256 43.4217 321.923 41.9639C322.59 40.5061 322.924 38.8119 322.924 36.8813ZM328.459 72.637C328.459 69.9184 327.909 67.7908 326.81 66.2542C325.711 64.7176 324.062 63.5553 321.864 62.7673C320.529 62.2551 318.684 61.9793 316.329 61.9399C314.013 61.8611 310.892 61.8217 306.967 61.8217H302.904V83.8661H304.082C309.813 83.8661 313.778 83.8267 315.976 83.7479C318.174 83.6691 320.412 83.1372 322.688 82.1522C324.69 81.2854 326.143 80.0246 327.046 78.3698C327.988 76.6756 328.459 74.7647 328.459 72.637Z" fill="white"/>
<path d="M396.468 101.774C383.985 101.774 374.406 98.7791 367.733 92.7903C361.099 86.8014 357.782 78.2713 357.782 67.1998C357.782 56.3647 360.883 47.7164 367.085 41.2547C373.288 34.7931 381.963 31.5622 393.111 31.5622C403.239 31.5622 410.854 34.3006 415.957 39.7772C421.061 45.2538 423.612 53.0945 423.612 63.2992V70.7458H378.45C378.646 73.819 379.294 76.3998 380.393 78.488C381.492 80.5368 382.944 82.1719 384.75 83.3933C386.516 84.6147 388.577 85.5012 390.933 86.0528C393.288 86.565 395.859 86.8211 398.646 86.8211C401.041 86.8211 403.396 86.565 405.712 86.0528C408.028 85.5012 410.148 84.792 412.071 83.9252C413.759 83.1766 415.31 82.3689 416.723 81.5021C418.175 80.6353 419.353 79.867 420.256 79.1972H422.434V96.2772C420.746 96.947 419.196 97.5774 417.783 98.1684C416.409 98.72 414.505 99.2913 412.071 99.8823C409.834 100.473 407.518 100.926 405.123 101.242C402.768 101.596 399.883 101.774 396.468 101.774ZM403.298 58.2756C403.18 53.9022 402.159 50.5729 400.236 48.2877C398.352 46.0024 395.447 44.8598 391.521 44.8598C387.517 44.8598 384.377 46.0615 382.1 48.465C379.863 50.8684 378.626 54.1386 378.391 58.2756H403.298Z" fill="white"/>
<path d="M478.608 53.193H476.9C476.115 52.9172 474.977 52.7202 473.485 52.602C471.993 52.4444 470.345 52.3656 468.539 52.3656C466.38 52.3656 464.103 52.6808 461.709 53.3112C459.353 53.9416 457.057 54.6902 454.82 55.557V100.001H434.211V33.6308H454.82V43.1459C455.762 42.2791 457.057 41.1956 458.706 39.8954C460.394 38.5558 461.925 37.492 463.299 36.704C464.79 35.7978 466.517 35.0295 468.48 34.3991C470.482 33.7293 472.366 33.3944 474.133 33.3944C474.8 33.3944 475.546 33.4141 476.37 33.4535C477.195 33.4929 477.94 33.552 478.608 33.6308V53.193Z" fill="white"/>
<path d="M526.008 79.079V48.9969C524.987 48.5241 523.731 48.1301 522.239 47.8149C520.748 47.4997 519.256 47.3421 517.764 47.3421C512.818 47.3421 509.089 48.9575 506.577 52.1883C504.104 55.3797 502.867 59.8516 502.867 65.6041C502.867 68.4803 503.044 70.9231 503.397 72.9325C503.79 74.9026 504.496 76.6559 505.517 78.1925C506.498 79.6897 507.774 80.8323 509.344 81.6203C510.954 82.3689 512.995 82.7432 515.468 82.7432C517.313 82.7432 519.119 82.428 520.885 81.7976C522.691 81.1672 524.398 80.261 526.008 79.079ZM546.616 92.3766C546.616 98.523 545.733 103.744 543.967 108.038C542.2 112.333 539.786 115.682 536.724 118.085C533.662 120.528 529.992 122.281 525.713 123.345C521.435 124.448 516.685 125 511.464 125C507.067 125 502.887 124.705 498.922 124.114C494.997 123.562 491.581 122.912 488.677 122.163V105.556H491.091C492.111 105.95 493.309 106.383 494.683 106.856C496.096 107.329 497.509 107.762 498.922 108.156C500.61 108.59 502.259 108.944 503.868 109.22C505.478 109.496 507.126 109.634 508.814 109.634C512.308 109.634 515.213 109.26 517.529 108.511C519.884 107.802 521.651 106.777 522.828 105.438C524.006 104.059 524.83 102.424 525.301 100.532C525.772 98.6806 526.008 96.3363 526.008 93.4995V92.2584C523.692 94.3072 521.003 95.962 517.941 97.2228C514.918 98.4442 511.798 99.0549 508.579 99.0549C500.021 99.0549 493.407 96.2575 488.736 90.6627C484.103 85.0678 481.787 76.5574 481.787 65.1313C481.787 59.9304 482.494 55.2615 483.907 51.1245C485.36 46.9875 487.362 43.4611 489.913 40.5455C492.347 37.7481 495.291 35.6008 498.745 34.1036C502.2 32.5669 505.792 31.7986 509.521 31.7986C512.897 31.7986 515.919 32.232 518.589 33.0988C521.258 33.9657 523.692 35.128 525.89 36.5858L526.656 33.6308H546.616V92.3766Z" fill="white"/>
<path d="M596.313 101.774C583.83 101.774 574.252 98.7791 567.578 92.7903C560.944 86.8014 557.627 78.2713 557.627 67.1998C557.627 56.3647 560.729 47.7164 566.931 41.2547C573.133 34.7931 581.808 31.5622 592.957 31.5622C603.084 31.5622 610.7 34.3006 615.803 39.7772C620.906 45.2538 623.457 53.0945 623.457 63.2992V70.7458H578.295C578.491 73.819 579.139 76.3998 580.238 78.488C581.337 80.5368 582.79 82.1719 584.595 83.3933C586.362 84.6147 588.423 85.5012 590.778 86.0528C593.133 86.565 595.704 86.8211 598.491 86.8211C600.886 86.8211 603.241 86.565 605.557 86.0528C607.873 85.5012 609.993 84.792 611.917 83.9252C613.605 83.1766 615.155 82.3689 616.568 81.5021C618.021 80.6353 619.198 79.867 620.101 79.1972H622.28V96.2772C620.592 96.947 619.041 97.5774 617.628 98.1684C616.254 98.72 614.35 99.2913 611.917 99.8823C609.679 100.473 607.363 100.926 604.968 101.242C602.613 101.596 599.728 101.774 596.313 101.774ZM603.143 58.2756C603.025 53.9022 602.005 50.5729 600.081 48.2877C598.197 46.0024 595.292 44.8598 591.367 44.8598C587.363 44.8598 584.222 46.0615 581.946 48.465C579.708 50.8684 578.472 54.1386 578.236 58.2756H603.143Z" fill="white"/>
<path d="M696 100.001H675.274V67.0816C675.274 64.4024 675.156 61.7429 674.92 59.103C674.724 56.4238 674.331 54.4538 673.743 53.193C673.036 51.6958 672.015 50.632 670.681 50.0016C669.346 49.3318 667.56 48.9969 665.323 48.9969C663.635 48.9969 661.927 49.3121 660.2 49.9425C658.473 50.5729 656.628 51.5776 654.665 52.9566V100.001H634.056V33.6308H654.665V40.9592C658.041 38.083 661.319 35.8372 664.498 34.2218C667.717 32.6063 671.27 31.7986 675.156 31.7986C681.908 31.7986 687.07 33.946 690.642 38.2406C694.214 42.4958 696 48.6817 696 56.7981V100.001Z" fill="white"/>
<path d="M305.36 157.56H314.275V185.872C314.275 189.169 313.559 191.945 312.128 194.201C310.717 196.458 308.759 198.155 306.254 199.293C303.77 200.431 300.907 201 297.667 201C294.427 201 291.545 200.431 289.021 199.293C286.516 198.155 284.548 196.458 283.117 194.201C281.706 191.945 281 189.169 281 185.872V157.56H289.945V185.872C289.945 187.795 290.253 189.365 290.869 190.581C291.485 191.798 292.37 192.691 293.523 193.26C294.696 193.829 296.077 194.113 297.667 194.113C299.297 194.113 300.679 193.829 301.812 193.26C302.965 192.691 303.839 191.798 304.436 190.581C305.052 189.365 305.36 187.795 305.36 185.872V157.56Z" fill="white"/>
<path d="M329.004 157.56L337.174 172.511L345.343 157.56H355.57L342.958 178.809L355.898 200.411H345.582L337.174 185.166L328.766 200.411H318.389L331.36 178.809L318.717 157.56H329.004Z" fill="white"/>
<path d="M393.258 164.888L381.451 200.411H371.939L388.07 157.56H394.123L393.258 164.888ZM403.067 200.411L391.23 164.888L390.276 157.56H396.389L412.609 200.411H403.067ZM402.531 184.46V191.376H379.602V184.46H402.531Z" fill="white"/>
<path d="M433.54 191.612C433.54 191.003 433.361 190.454 433.003 189.963C432.645 189.473 431.979 189.022 431.005 188.61C430.051 188.178 428.67 187.785 426.861 187.432C425.231 187.079 423.71 186.638 422.299 186.108C420.907 185.559 419.695 184.901 418.661 184.136C417.648 183.371 416.852 182.468 416.276 181.428C415.7 180.369 415.411 179.162 415.411 177.808C415.411 176.474 415.7 175.218 416.276 174.041C416.872 172.864 417.717 171.824 418.81 170.922C419.924 169.999 421.275 169.283 422.865 168.773C424.475 168.243 426.284 167.978 428.292 167.978C431.095 167.978 433.5 168.42 435.507 169.303C437.535 170.186 439.085 171.402 440.159 172.952C441.252 174.483 441.799 176.229 441.799 178.191H433.212C433.212 177.367 433.033 176.631 432.675 175.984C432.337 175.317 431.8 174.797 431.065 174.424C430.349 174.031 429.415 173.835 428.262 173.835C427.308 173.835 426.483 174.002 425.787 174.336C425.092 174.649 424.555 175.081 424.177 175.63C423.82 176.16 423.641 176.749 423.641 177.396C423.641 177.887 423.74 178.328 423.939 178.721C424.157 179.094 424.505 179.437 424.982 179.751C425.459 180.065 426.076 180.359 426.831 180.634C427.606 180.889 428.56 181.124 429.693 181.34C432.019 181.811 434.096 182.429 435.925 183.194C437.754 183.94 439.205 184.96 440.278 186.255C441.351 187.53 441.888 189.208 441.888 191.288C441.888 192.7 441.57 193.995 440.934 195.173C440.298 196.35 439.384 197.38 438.191 198.263C436.998 199.126 435.567 199.803 433.897 200.294C432.248 200.765 430.389 201 428.322 201C425.32 201 422.776 200.47 420.689 199.411C418.622 198.351 417.051 197.007 415.978 195.379C414.924 193.731 414.398 192.043 414.398 190.317H422.537C422.577 191.474 422.875 192.406 423.432 193.112C424.008 193.819 424.734 194.329 425.608 194.643C426.503 194.957 427.467 195.114 428.501 195.114C429.614 195.114 430.538 194.967 431.274 194.672C432.009 194.358 432.566 193.946 432.943 193.436C433.341 192.906 433.54 192.298 433.54 191.612Z" fill="white"/>
<path d="M464.906 191.612C464.906 191.003 464.727 190.454 464.37 189.963C464.012 189.473 463.346 189.022 462.372 188.61C461.418 188.178 460.036 187.785 458.227 187.432C456.597 187.079 455.077 186.638 453.666 186.108C452.274 185.559 451.062 184.901 450.028 184.136C449.014 183.371 448.219 182.468 447.643 181.428C447.066 180.369 446.778 179.162 446.778 177.808C446.778 176.474 447.066 175.218 447.643 174.041C448.239 172.864 449.084 171.824 450.177 170.922C451.29 169.999 452.642 169.283 454.232 168.773C455.842 168.243 457.651 167.978 459.659 167.978C462.461 167.978 464.866 168.42 466.874 169.303C468.902 170.186 470.452 171.402 471.525 172.952C472.619 174.483 473.165 176.229 473.165 178.191H464.578C464.578 177.367 464.399 176.631 464.042 175.984C463.704 175.317 463.167 174.797 462.431 174.424C461.716 174.031 460.782 173.835 459.629 173.835C458.675 173.835 457.85 174.002 457.154 174.336C456.458 174.649 455.922 175.081 455.544 175.63C455.186 176.16 455.007 176.749 455.007 177.396C455.007 177.887 455.107 178.328 455.305 178.721C455.524 179.094 455.872 179.437 456.349 179.751C456.826 180.065 457.442 180.359 458.198 180.634C458.973 180.889 459.927 181.124 461.06 181.34C463.386 181.811 465.463 182.429 467.292 183.194C469.12 183.94 470.571 184.96 471.645 186.255C472.718 187.53 473.255 189.208 473.255 191.288C473.255 192.7 472.937 193.995 472.301 195.173C471.665 196.35 470.75 197.38 469.558 198.263C468.365 199.126 466.934 199.803 465.264 200.294C463.614 200.765 461.756 201 459.688 201C456.687 201 454.143 200.47 452.055 199.411C449.988 198.351 448.418 197.007 447.344 195.379C446.291 193.731 445.764 192.043 445.764 190.317H453.904C453.944 191.474 454.242 192.406 454.799 193.112C455.375 193.819 456.101 194.329 456.975 194.643C457.87 194.957 458.834 195.114 459.867 195.114C460.98 195.114 461.905 194.967 462.64 194.672C463.376 194.358 463.932 193.946 464.31 193.436C464.707 192.906 464.906 192.298 464.906 191.612Z" fill="white"/>
<path d="M477.459 184.813V184.195C477.459 181.86 477.797 179.712 478.473 177.75C479.148 175.768 480.132 174.051 481.424 172.599C482.716 171.147 484.307 170.019 486.195 169.215C488.083 168.39 490.25 167.978 492.695 167.978C495.14 167.978 497.316 168.39 499.225 169.215C501.133 170.019 502.733 171.147 504.025 172.599C505.337 174.051 506.331 175.768 507.007 177.75C507.682 179.712 508.02 181.86 508.02 184.195V184.813C508.02 187.128 507.682 189.277 507.007 191.258C506.331 193.22 505.337 194.937 504.025 196.409C502.733 197.861 501.143 198.989 499.254 199.793C497.366 200.598 495.199 201 492.755 201C490.31 201 488.133 200.598 486.225 199.793C484.336 198.989 482.736 197.861 481.424 196.409C480.132 194.937 479.148 193.22 478.473 191.258C477.797 189.277 477.459 187.128 477.459 184.813ZM486.046 184.195V184.813C486.046 186.147 486.165 187.393 486.404 188.551C486.642 189.708 487.02 190.729 487.537 191.612C488.073 192.475 488.769 193.152 489.624 193.642C490.479 194.133 491.522 194.378 492.755 194.378C493.947 194.378 494.971 194.133 495.826 193.642C496.68 193.152 497.366 192.475 497.883 191.612C498.4 190.729 498.777 189.708 499.016 188.551C499.274 187.393 499.404 186.147 499.404 184.813V184.195C499.404 182.9 499.274 181.683 499.016 180.545C498.777 179.388 498.39 178.368 497.853 177.485C497.336 176.582 496.651 175.876 495.796 175.366C494.941 174.855 493.907 174.6 492.695 174.6C491.482 174.6 490.449 174.855 489.594 175.366C488.759 175.876 488.073 176.582 487.537 177.485C487.02 178.368 486.642 179.388 486.404 180.545C486.165 181.683 486.046 182.9 486.046 184.195Z" fill="white"/>
<path d="M526.626 194.378C527.679 194.378 528.613 194.182 529.428 193.789C530.243 193.377 530.879 192.808 531.337 192.082C531.814 191.337 532.062 190.464 532.082 189.463H540.162C540.142 191.7 539.536 193.691 538.343 195.438C537.151 197.164 535.551 198.528 533.543 199.528C531.535 200.509 529.289 201 526.805 201C524.3 201 522.114 200.588 520.245 199.764C518.396 198.94 516.856 197.802 515.624 196.35C514.391 194.878 513.467 193.171 512.851 191.229C512.234 189.267 511.926 187.167 511.926 184.931V184.077C511.926 181.821 512.234 179.721 512.851 177.779C513.467 175.817 514.391 174.11 515.624 172.658C516.856 171.186 518.396 170.039 520.245 169.215C522.094 168.39 524.26 167.978 526.745 167.978C529.389 167.978 531.704 168.479 533.692 169.479C535.7 170.48 537.27 171.912 538.403 173.776C539.556 175.621 540.142 177.808 540.162 180.339H532.082C532.062 179.28 531.834 178.319 531.396 177.455C530.979 176.592 530.363 175.905 529.548 175.395C528.753 174.865 527.769 174.6 526.596 174.6C525.344 174.6 524.32 174.865 523.525 175.395C522.73 175.905 522.114 176.612 521.676 177.514C521.239 178.397 520.931 179.407 520.752 180.545C520.593 181.664 520.513 182.841 520.513 184.077V184.931C520.513 186.167 520.593 187.354 520.752 188.492C520.911 189.63 521.209 190.64 521.646 191.523C522.104 192.406 522.73 193.103 523.525 193.613C524.32 194.123 525.354 194.378 526.626 194.378Z" fill="white"/>
<path d="M554.206 168.567V200.411H545.589V168.567H554.206ZM545.052 160.267C545.052 159.031 545.489 158.011 546.364 157.207C547.239 156.402 548.411 156 549.882 156C551.333 156 552.496 156.402 553.371 157.207C554.265 158.011 554.713 159.031 554.713 160.267C554.713 161.504 554.265 162.524 553.371 163.328C552.496 164.133 551.333 164.535 549.882 164.535C548.411 164.535 547.239 164.133 546.364 163.328C545.489 162.524 545.052 161.504 545.052 160.267Z" fill="white"/>
<path d="M578.715 193.23V179.044C578.715 178.024 578.546 177.151 578.208 176.425C577.87 175.68 577.343 175.101 576.627 174.689C575.932 174.277 575.027 174.071 573.914 174.071C572.96 174.071 572.135 174.237 571.439 174.571C570.744 174.885 570.207 175.346 569.829 175.954C569.452 176.543 569.263 177.239 569.263 178.044H560.676C560.676 176.69 560.994 175.405 561.63 174.188C562.266 172.972 563.19 171.903 564.403 170.98C565.615 170.039 567.056 169.303 568.726 168.773C570.416 168.243 572.304 167.978 574.391 167.978C576.896 167.978 579.122 168.39 581.07 169.215C583.018 170.039 584.549 171.275 585.662 172.923C586.795 174.571 587.361 176.631 587.361 179.103V192.73C587.361 194.476 587.471 195.908 587.689 197.027C587.908 198.126 588.226 199.087 588.643 199.911V200.411H579.967C579.549 199.548 579.231 198.469 579.013 197.174C578.814 195.859 578.715 194.545 578.715 193.23ZM579.848 181.016L579.907 185.814H575.107C573.974 185.814 572.99 185.941 572.155 186.196C571.32 186.451 570.634 186.814 570.098 187.285C569.561 187.736 569.163 188.266 568.905 188.874C568.667 189.483 568.547 190.15 568.547 190.876C568.547 191.602 568.716 192.259 569.054 192.848C569.392 193.417 569.879 193.868 570.515 194.201C571.151 194.515 571.897 194.672 572.751 194.672C574.043 194.672 575.166 194.417 576.121 193.907C577.075 193.397 577.81 192.769 578.327 192.024C578.864 191.278 579.142 190.572 579.162 189.905L581.428 193.495C581.11 194.3 580.672 195.133 580.116 195.997C579.579 196.86 578.893 197.674 578.059 198.44C577.224 199.185 576.22 199.803 575.047 200.294C573.874 200.765 572.483 201 570.873 201C568.826 201 566.967 200.598 565.297 199.793C563.647 198.969 562.336 197.841 561.362 196.409C560.407 194.957 559.93 193.309 559.93 191.464C559.93 189.797 560.248 188.315 560.885 187.02C561.521 185.725 562.455 184.636 563.687 183.753C564.939 182.851 566.5 182.174 568.368 181.723C570.237 181.252 572.403 181.016 574.868 181.016H579.848Z" fill="white"/>
<path d="M609.783 168.567V174.571H590.999V168.567H609.783ZM595.65 160.709H604.237V190.817C604.237 191.739 604.356 192.445 604.595 192.936C604.853 193.426 605.231 193.77 605.728 193.966C606.225 194.143 606.851 194.231 607.606 194.231C608.143 194.231 608.62 194.211 609.038 194.172C609.475 194.113 609.843 194.054 610.141 193.995L610.171 200.235C609.435 200.47 608.64 200.657 607.785 200.794C606.931 200.931 605.986 201 604.953 201C603.064 201 601.415 200.696 600.003 200.088C598.612 199.46 597.539 198.459 596.783 197.086C596.028 195.712 595.65 193.907 595.65 191.67V160.709Z" fill="white"/>
<path d="M623.737 168.567V200.411H615.12V168.567H623.737ZM614.583 160.267C614.583 159.031 615.021 158.011 615.895 157.207C616.77 156.402 617.943 156 619.414 156C620.865 156 622.028 156.402 622.902 157.207C623.797 158.011 624.244 159.031 624.244 160.267C624.244 161.504 623.797 162.524 622.902 163.328C622.028 164.133 620.865 164.535 619.414 164.535C617.943 164.535 616.77 164.133 615.895 163.328C615.021 162.524 614.583 161.504 614.583 160.267Z" fill="white"/>
<path d="M629.462 184.813V184.195C629.462 181.86 629.8 179.712 630.476 177.75C631.151 175.768 632.135 174.051 633.427 172.599C634.719 171.147 636.309 170.019 638.198 169.215C640.086 168.39 642.253 167.978 644.698 167.978C647.143 167.978 649.319 168.39 651.228 169.215C653.136 170.019 654.736 171.147 656.028 172.599C657.34 174.051 658.334 175.768 659.01 177.75C659.685 179.712 660.023 181.86 660.023 184.195V184.813C660.023 187.128 659.685 189.277 659.01 191.258C658.334 193.22 657.34 194.937 656.028 196.409C654.736 197.861 653.146 198.989 651.257 199.793C649.369 200.598 647.202 201 644.757 201C642.313 201 640.136 200.598 638.228 199.793C636.339 198.989 634.739 197.861 633.427 196.409C632.135 194.937 631.151 193.22 630.476 191.258C629.8 189.277 629.462 187.128 629.462 184.813ZM638.049 184.195V184.813C638.049 186.147 638.168 187.393 638.407 188.551C638.645 189.708 639.023 190.729 639.54 191.612C640.076 192.475 640.772 193.152 641.627 193.642C642.481 194.133 643.525 194.378 644.757 194.378C645.95 194.378 646.974 194.133 647.829 193.642C648.683 193.152 649.369 192.475 649.886 191.612C650.403 190.729 650.78 189.708 651.019 188.551C651.277 187.393 651.406 186.147 651.406 184.813V184.195C651.406 182.9 651.277 181.683 651.019 180.545C650.78 179.388 650.393 178.368 649.856 177.485C649.339 176.582 648.653 175.876 647.799 175.366C646.944 174.855 645.91 174.6 644.698 174.6C643.485 174.6 642.452 174.855 641.597 175.366C640.762 175.876 640.076 176.582 639.54 177.485C639.023 178.368 638.645 179.388 638.407 180.545C638.168 181.683 638.049 182.9 638.049 184.195Z" fill="white"/>
<path d="M673.709 175.366V200.411H665.122V168.567H673.172L673.709 175.366ZM672.457 183.371H670.131C670.131 181.016 670.439 178.897 671.055 177.014C671.672 175.111 672.536 173.492 673.649 172.158C674.762 170.804 676.084 169.774 677.615 169.067C679.165 168.341 680.895 167.978 682.803 167.978C684.314 167.978 685.695 168.194 686.947 168.626C688.2 169.058 689.273 169.744 690.167 170.686C691.082 171.628 691.778 172.874 692.255 174.424C692.752 175.974 693 177.867 693 180.104V200.411H684.353V180.075C684.353 178.662 684.155 177.563 683.757 176.778C683.359 175.993 682.773 175.444 681.998 175.13C681.242 174.797 680.308 174.63 679.195 174.63C678.042 174.63 677.038 174.855 676.184 175.307C675.349 175.758 674.653 176.386 674.097 177.19C673.56 177.975 673.152 178.897 672.874 179.957C672.596 181.016 672.457 182.154 672.457 183.371Z" fill="white"/>
<path d="M102.856 65.396C112.576 65.396 120.455 57.5167 120.455 47.797C120.455 38.0774 112.576 30.198 102.856 30.198C93.1368 30.198 85.2574 38.0774 85.2574 47.797C85.2574 57.5167 93.1368 65.396 102.856 65.396Z" fill="white"/>
<path fill-rule="evenodd" clip-rule="evenodd" d="M0 71.3068V0H205.713V71.3068C205.713 129.842 197.177 182.348 143.82 206.418C132.189 211.665 118.618 216.337 102.856 220C87.095 216.337 73.5238 211.665 61.8929 206.418C8.53544 182.348 0 129.842 0 71.3068ZM18.4208 61.101V17.2213H189.292V61.101C189.292 91.7612 185.408 124.198 174.604 150.615L166.604 100.221L145.485 78.034L122.411 98.5404V74.6723H83.302V98.5404L60.2277 78.034L39.1089 100.221L31.1089 150.615C20.3049 124.198 18.4208 91.7612 18.4208 61.101ZM65.3119 120.728H51.2327V137.536H65.3119V120.728ZM154.48 120.728H140.401V137.536H154.48V120.728ZM65.3119 144.932H51.2327V161.74H65.3119V144.932ZM154.48 144.932H140.401V161.74H154.48V144.932ZM64.9208 114.673C68.8087 114.673 71.9604 111.522 71.9604 107.634C71.9604 103.746 68.8087 100.594 64.9208 100.594C61.0329 100.594 57.8812 103.746 57.8812 107.634C57.8812 111.522 61.0329 114.673 64.9208 114.673ZM133.361 107.597C133.361 111.485 136.513 114.637 140.401 114.637C144.289 114.637 147.441 111.485 147.441 107.597C147.441 103.709 144.289 100.557 140.401 100.557C136.513 100.557 133.361 103.709 133.361 107.597ZM109.505 147.525H96.9901V174.119H109.505V147.525Z" fill="white"/>
</svg>
