<svg width="351" height="351" viewBox="0 0 351 351" fill="none" xmlns="http://www.w3.org/2000/svg">
<path d="M169.715 49.6547C170.186 49.4052 171.184 48.7124 171.932 48.075C173.512 46.8002 174.039 46.7171 175.064 47.5208C176.588 48.6847 181.134 51.8163 182.88 52.8694C183.878 53.479 185.153 54.3381 185.735 54.7815C186.345 55.2527 187.204 55.8901 187.675 56.2226C187.882 56.3604 188.207 56.5792 188.589 56.8354C189.128 57.1975 189.779 57.6345 190.363 58.0239C190.597 58.1863 190.828 58.3457 191.046 58.4962C191.759 58.9881 192.336 59.3866 192.442 59.4927C192.775 59.7699 196.6 62.2917 198.373 63.4003C199.066 63.8159 200.397 64.7582 201.311 65.4787C203.196 66.9475 205.663 68.5548 206.023 68.5548C206.162 68.5548 206.661 68.9151 207.132 69.3585C207.575 69.8019 208.85 70.7165 209.959 71.3816C212.647 72.9889 218.329 76.8133 219.188 77.5615C219.576 77.8941 220.435 78.4761 221.128 78.8363C221.821 79.1966 223.069 80.0003 223.9 80.6377C224.732 81.2751 225.618 81.857 225.84 81.9402C226.062 82.051 227.06 82.6884 228.057 83.3535C229.055 84.0464 230.413 84.9886 231.106 85.4597C231.799 85.9308 234.46 87.6767 237.038 89.3395C239.615 91.0023 241.971 92.6096 242.304 92.8868C242.608 93.1916 243.329 93.6627 243.856 93.9399C244.382 94.217 245.574 94.9652 246.489 95.6026C247.902 96.5449 249.51 97.5425 251.866 98.9005C252.143 99.0667 252.919 99.5933 253.584 100.092C255.192 101.311 259.654 104.221 261.483 105.274C264.338 106.882 264.726 107.131 266.334 108.267C267.941 109.431 269.188 110.207 271.572 111.565C272.265 111.981 273.207 112.618 273.651 113.006C274.122 113.394 274.565 113.727 274.704 113.727C274.981 113.727 277.06 115.057 277.947 115.805C278.723 116.47 281.245 117.995 283.351 119.103C284.127 119.491 285.236 120.184 285.846 120.627C287.758 121.985 289.671 123.205 291.112 123.953C292.941 124.895 295.408 126.53 297.598 128.248C299.233 129.523 299.344 129.689 299.205 130.521C299.122 130.992 298.568 132.211 297.986 133.154C295.824 136.673 295.131 137.865 295.131 138.087C295.131 138.197 294.743 138.835 294.272 139.5C293.8 140.137 293.274 141.079 293.107 141.551C292.803 142.41 292.193 143.463 290.391 146.179C289.837 147.01 288.839 148.728 288.146 150.031C285.846 154.326 283.823 157.929 283.047 159.037C282.631 159.647 281.799 161.088 281.245 162.28C280.663 163.444 279.776 165.051 279.222 165.827C278.667 166.631 278.224 167.434 278.224 167.656C278.224 168.21 277.614 169.43 277.337 169.43C277.198 169.43 276.81 168.848 276.478 168.1C276.145 167.379 275.591 166.326 275.231 165.772L274.593 164.746L275.258 163.693C275.619 163.111 276.256 161.947 276.672 161.116C277.115 160.285 277.753 159.204 278.113 158.705C278.473 158.234 279.111 157.181 279.554 156.349C281.023 153.606 282.16 151.555 282.658 150.862C282.908 150.474 283.601 149.283 284.183 148.229C284.765 147.149 285.624 145.652 286.123 144.904C286.622 144.128 287.703 142.188 288.562 140.553C289.421 138.918 290.558 136.923 291.112 136.119C291.639 135.315 292.082 134.567 292.082 134.456C292.082 134.345 292.47 133.625 292.913 132.904C293.385 132.156 293.745 131.352 293.745 131.103C293.745 130.853 293.024 130.271 292.165 129.773C291.278 129.274 289.976 128.47 289.283 127.944C288.562 127.445 287.897 127.029 287.786 127.029C287.647 127.029 286.927 126.53 286.123 125.921C285.347 125.311 283.989 124.424 283.074 123.953C282.187 123.482 280.857 122.706 280.136 122.207C278.362 121.043 276.339 119.741 275.785 119.408C273.512 118.05 271.849 117.108 271.212 116.775C270.768 116.554 270.297 116.166 270.158 115.888C270.02 115.611 269.743 115.39 269.576 115.39C269.41 115.39 268.856 115.085 268.357 114.697C267.858 114.309 267.331 114.004 267.193 114.004C267.082 114.004 266.417 113.561 265.779 113.006C265.142 112.452 263.784 111.565 262.786 111.066C260.874 110.069 256.799 107.408 256.661 107.048C256.605 106.909 255.58 106.328 254.36 105.718C253.141 105.108 251.616 104.194 250.979 103.667C250.341 103.168 249.205 102.448 248.484 102.06C247.736 101.699 246.6 100.924 245.934 100.342C245.269 99.7873 244.632 99.3162 244.465 99.3162C244.327 99.3162 243.745 98.9282 243.163 98.4848C242.581 98.0137 241.5 97.3485 240.752 97.016C240.031 96.6834 239.421 96.3232 239.421 96.2123C239.421 96.1292 238.701 95.6303 237.841 95.1315C236.067 94.1339 234.127 92.7205 233.795 92.1939C233.684 92 233.434 91.8337 233.24 91.8337C232.936 91.8337 229.998 89.9492 227.642 88.2587C227.032 87.8153 226.09 87.2333 225.563 86.9839C225.036 86.7068 223.983 86.0417 223.207 85.4597C222.459 84.9055 221.267 84.1295 220.574 83.7415C219.881 83.3258 219.077 82.827 218.773 82.5776C216.5 80.8317 214.282 79.3075 212.398 78.1712C210.264 76.8687 208.822 75.8988 205.607 73.5709C204.776 72.9612 203.39 72.0744 202.559 71.5756C201.727 71.1044 200.591 70.3285 200.009 69.9128C199.454 69.4694 197.902 68.3609 196.544 67.4463L196.31 67.2854L196.309 67.2849C193.714 65.503 192.291 64.5253 191.86 64.1485C191.694 64.0376 190.696 63.3725 189.643 62.7074C188.59 62.0423 187.065 60.9892 186.261 60.3241C185.43 59.659 184.654 59.1325 184.543 59.1325C184.266 59.1325 180.025 56.278 179.166 55.5575C178.639 55.0864 175.84 53.3682 174.371 52.5922C173.512 52.1211 173.484 52.1211 172.459 52.9248C170.99 54.0887 169.299 55.2527 169.105 55.2527C169.022 55.2527 167.802 56.1118 166.417 57.1371C165.031 58.1625 161.483 60.629 158.573 62.5966C155.635 64.5919 152.392 66.8089 151.367 67.5295C148.54 69.5248 143.412 72.8781 142.414 73.4046C141.943 73.654 141.084 74.2637 140.53 74.7348C139.975 75.2337 139.31 75.7325 139.061 75.8988C138.929 75.9809 138.496 76.2676 137.945 76.6318L137.941 76.6348L137.938 76.6364C137.562 76.8854 137.131 77.1703 136.705 77.4507C135.652 78.1712 134.266 79.0026 133.656 79.3352C133.018 79.6677 132.27 80.1943 131.993 80.4991C131.716 80.8317 130.635 81.5799 129.582 82.1896C128.556 82.7993 127.309 83.6307 126.81 84.0464C126.311 84.462 124.648 85.5983 123.068 86.5959C122.184 87.1484 121.156 87.7997 120.272 88.3605C119.603 88.7843 119.016 89.1564 118.634 89.3949C117.775 89.9769 116.804 90.5866 116.5 90.7252C116.195 90.8914 115.391 91.4457 114.698 91.9722C112.813 93.4133 109.487 95.7135 109.266 95.7135C109.155 95.7135 107.991 96.434 106.688 97.2931C105.385 98.1799 103.833 99.1499 103.279 99.4547C102.725 99.7596 101.921 100.314 101.477 100.702C101.062 101.09 100.202 101.699 99.565 102.087L98.5061 102.709L98.5041 102.71L98.5034 102.711C96.6149 103.82 95.4798 104.487 94.4652 105.053C93.7723 105.441 93.0239 105.912 92.8022 106.106C91.9984 106.771 86.9541 110.124 86.7601 110.124C86.4552 110.124 82.3532 112.785 79.7756 114.641C78.6392 115.473 77.0871 116.498 76.311 116.914C75.5627 117.33 74.6758 117.884 74.3709 118.161C74.066 118.438 73.3731 118.854 72.8465 119.131C72.3199 119.408 71.5161 119.879 71.045 120.239C70.6015 120.572 69.5206 121.209 68.6891 121.68C65.9729 123.177 59.0438 127.722 57.658 128.941C57.2423 129.302 56.2445 129.911 55.4684 130.271C53.8886 131.02 53.7777 131.214 54.4152 131.74C54.6369 131.934 54.8309 132.211 54.8309 132.35C54.8309 132.488 55.4407 133.569 56.1613 134.733C58.2955 138.142 59.1824 139.638 61.9817 144.488C63.423 147.01 65.086 149.809 65.6403 150.724L65.8156 151.013C66.4282 152.023 67.5311 153.841 68.3842 155.296C70.5814 159.018 70.6812 159.172 71.3817 160.255L71.5438 160.506C71.9596 161.171 72.2922 161.781 72.2922 161.92C72.2922 162.03 72.7356 162.64 73.2623 163.25C73.7889 163.887 74.2323 164.497 74.2323 164.635C74.2323 164.774 73.872 165.107 73.4008 165.356C72.9574 165.633 72.4308 165.993 72.2368 166.187C71.7933 166.603 70.4352 167.49 70.2135 167.49C70.1303 167.49 70.0749 167.351 70.0749 167.185C70.0749 167.019 69.6591 166.243 69.1325 165.467C68.1902 164.026 67.9684 163.61 66.6104 160.894C66.1946 160.091 65.5849 159.093 65.2523 158.677C64.9197 158.261 64.005 156.793 63.2567 155.435C60.1248 149.809 56.1059 142.936 55.6624 142.41C55.413 142.105 54.8587 141.218 54.4152 140.47C54.1116 139.903 53.675 139.13 53.3104 138.484C53.1758 138.245 53.0509 138.024 52.9462 137.837C52.5582 137.144 51.9762 136.091 51.6436 135.481C51.311 134.872 50.7289 133.874 50.3132 133.264C49.9252 132.655 49.3986 131.629 49.1768 130.964C48.6502 129.496 48.9274 128.914 50.5349 128.082C51.1447 127.777 51.9485 127.195 52.3365 126.835C52.7245 126.447 53.9717 125.671 55.1358 125.089C56.2999 124.507 57.6026 123.704 58.046 123.343C58.4895 122.983 59.3487 122.401 59.9585 122.068C62.148 120.905 63.2567 120.156 63.3676 119.851C63.423 119.685 63.617 119.547 63.811 119.547C64.005 119.547 65.086 118.937 66.2223 118.161C67.331 117.413 68.3842 116.775 68.4951 116.775C68.6059 116.775 69.8254 115.999 71.2112 115.029C73.8542 113.18 74.607 112.716 78.18 110.514L78.7224 110.18C81.6048 108.406 82.6303 107.713 84.5705 106.328C85.1525 105.912 86.1226 105.302 86.7046 104.997C89.8088 103.39 92.7745 101.45 94.382 100.037C94.8532 99.621 95.851 98.9559 96.5716 98.5679C98.4286 97.5703 103.722 94.217 105.469 92.9145C106.272 92.3325 106.965 91.8337 107.021 91.8337C107.187 91.8337 111.428 88.9793 112.508 88.1479C113.063 87.7322 113.617 87.3996 113.783 87.3996C113.922 87.3996 114.726 86.9285 115.557 86.3465C116.389 85.7646 117.581 84.9886 118.246 84.6283C118.883 84.2681 119.41 83.8801 119.41 83.7415C119.41 83.6307 119.909 83.2704 120.518 82.9656C121.156 82.633 122.126 81.9679 122.68 81.4691C123.235 80.9425 124.343 80.1666 125.147 79.7509C127.752 78.2821 130.635 76.4807 131.106 76.0096C131.55 75.5662 139.615 70.1068 143.052 67.9452C143.939 67.3632 145.186 66.5318 145.823 66.0884C147.514 64.8967 151.533 62.0977 152.06 61.7652C152.309 61.5989 153.14 61.0447 153.917 60.4904C154.665 59.9639 155.496 59.4096 155.718 59.3265C155.94 59.2156 156.633 58.7445 157.242 58.3011C158.878 57.0817 161.538 55.1972 162.564 54.5598C164.56 53.3128 168.357 50.7077 168.606 50.4029C168.772 50.2089 169.271 49.8764 169.715 49.6547Z" fill="black"/>
<path fill-rule="evenodd" clip-rule="evenodd" d="M170.13 60.6567C170.352 60.4627 171.295 59.853 172.209 59.2987C173.124 58.7445 173.928 58.3011 174.011 58.3011C174.094 58.3011 174.621 58.6059 175.175 58.9939C175.729 59.3819 176.311 59.6867 176.422 59.6867C176.533 59.7144 177.087 60.0747 177.614 60.5181C178.14 60.9892 178.695 61.3495 178.889 61.3495C179.055 61.3495 179.415 61.5989 179.72 61.9314C179.997 62.264 180.607 62.7074 181.078 62.9291C182.298 63.5388 184.709 65.1739 186.594 66.6704C187.509 67.4186 188.395 68.0006 188.59 68.0006C188.756 68.0006 189.061 68.1668 189.227 68.3886C189.587 68.832 194.41 72.1575 194.659 72.1575C194.77 72.1575 195.713 72.8226 196.821 73.6263C197.93 74.43 199.316 75.3999 199.925 75.7602C200.535 76.1205 201.45 76.7578 201.949 77.2013C202.448 77.6169 202.974 77.9772 203.141 77.9772C203.307 77.9772 203.833 78.2821 204.332 78.67C204.831 79.058 205.358 79.3629 205.496 79.3629C205.663 79.3629 206.771 80.1388 207.963 81.0533C210.596 83.0764 213.312 84.9054 213.673 84.9054C213.811 84.9054 213.922 85.0163 213.922 85.1271C213.922 85.2657 214.338 85.5705 214.837 85.82C216.361 86.6236 217.608 87.3996 219.05 88.4804C219.826 89.0347 222.237 90.6974 224.454 92.1385C226.672 93.5796 229.028 95.1315 229.693 95.6026C230.33 96.046 231.661 96.8774 232.603 97.4317C233.518 98.0136 234.598 98.7342 234.987 99.039C236.123 99.9258 237.481 100.868 239.698 102.226C240.835 102.947 242.026 103.75 242.331 104.055C242.83 104.498 243.883 105.136 246.572 106.549C247.071 106.826 248.373 107.63 249.427 108.378C251.228 109.598 253.196 110.789 254.526 111.482C254.831 111.621 256.522 112.757 258.268 113.976C260.014 115.196 262.37 116.692 263.479 117.302C264.587 117.912 267.248 119.547 269.382 120.932C271.517 122.318 273.9 123.787 274.704 124.23C276.616 125.255 281.051 128.248 281.522 128.803C281.716 129.052 282.076 129.246 282.298 129.246C282.991 129.246 287.62 132.405 287.62 132.876C287.647 133.126 287.398 133.514 287.121 133.708C286.844 133.93 286.095 135.038 285.486 136.174C284.903 137.311 283.739 139.306 282.963 140.553C282.16 141.828 281.439 143.075 281.356 143.324C281.245 143.601 280.746 144.405 280.247 145.153C279.748 145.874 279.333 146.594 279.333 146.733C279.333 146.871 278.889 147.537 278.362 148.257C277.836 148.95 277.392 149.698 277.392 149.892C277.392 150.086 276.616 151.555 275.674 153.135C274.704 154.687 273.789 156.322 273.595 156.737C273.096 157.874 271.877 159.73 271.627 159.73C271.517 159.73 270.879 158.899 270.242 157.901L269.05 156.072L270.158 153.827C270.768 152.58 271.544 151.112 271.905 150.585C272.265 150.058 272.764 149.227 272.985 148.784C273.762 147.259 274.981 145.181 275.286 144.793C275.452 144.599 276.145 143.38 276.838 142.133C277.531 140.858 278.778 138.668 279.637 137.227C280.497 135.814 281.245 134.456 281.356 134.207C281.522 133.68 279.693 132.184 277.42 131.047C276.589 130.632 275.203 129.8 274.288 129.163C273.374 128.526 272.043 127.611 271.323 127.168C269.272 125.893 265.835 123.676 264.338 122.65C263.59 122.152 262.647 121.625 262.287 121.486C261.899 121.348 260.679 120.627 259.571 119.879C258.49 119.131 256.688 118.022 255.607 117.385C254.526 116.775 252.254 115.306 250.535 114.143C248.817 113.006 247.293 112.12 247.154 112.23C247.015 112.313 246.904 113.228 246.904 114.281V116.193L248.401 117.163C249.205 117.69 250.757 118.577 251.838 119.103C252.891 119.657 253.972 120.35 254.249 120.655C254.526 120.96 254.942 121.209 255.192 121.209C255.441 121.209 256.134 121.57 256.771 121.985C257.409 122.401 258.434 123.038 259.072 123.426C261.788 125.034 265.918 127.694 266.444 128.138C266.749 128.415 268.385 129.44 270.048 130.465C271.738 131.463 273.734 132.682 274.482 133.181L275.868 134.124L275.84 135.731C275.785 137.477 275.535 137.837 274.344 137.809C273.484 137.782 264.449 138.364 263.617 138.502C263.091 138.585 263.035 138.474 263.146 137.865C263.423 136.562 262.204 134.567 260.347 133.209C258.13 131.602 257.187 131.186 255.441 131.131C254.249 131.103 254.166 131.075 255.025 130.992C255.58 130.937 256.051 130.77 256.051 130.604C256.051 130.133 254.526 130.355 251.949 131.241C247.819 132.655 246.35 134.484 246.35 138.142V140.026L245.325 140.193C243.551 140.498 237.093 141.745 236.511 141.911C236.095 142.022 236.04 141.966 236.261 141.717C236.511 141.467 236.428 140.969 235.957 139.694C235.181 137.56 234.238 135.177 233.767 134.096C232.936 132.239 231.91 129.246 231.245 126.752C230.857 125.311 230.164 122.928 229.72 121.486C228.889 118.771 228.362 116.748 228.141 115.196L228.002 114.281L235.458 114.226L242.886 114.143L242.969 113.228C243.08 112.036 242.331 110.069 241.389 109.21C240.641 108.489 237.73 107.214 236.151 106.909C235.291 106.743 235.264 106.688 235.264 105.219C235.264 103.418 234.183 100.979 233.351 100.979C233.074 100.979 232.381 100.646 231.799 100.258C229.693 98.845 228.418 99.0944 225.674 101.422C224.731 102.226 224.149 103.002 223.9 103.75C223.706 104.36 223.429 104.859 223.318 104.859C223.179 104.859 222.819 104.471 222.459 104.027C221.738 103.03 219.909 102.087 218.689 102.087C218.024 102.087 217.47 102.392 216.611 103.141C214.892 104.72 214.172 105.136 213.229 105.136L212.398 105.164L213.229 105.524C213.7 105.746 214.227 106.161 214.421 106.494C214.754 107.048 214.698 107.076 213.451 107.103L213.149 107.115L213.148 107.115L213.145 107.115L213.144 107.115L213.142 107.115C212.173 107.15 210.072 107.227 208.102 107.325L204.083 107.491L205.136 108.517C206.023 109.376 206.106 109.57 205.663 109.57C205.358 109.57 204.665 110.096 204.111 110.734C203.495 111.435 203.259 111.703 203.286 111.943C203.303 112.091 203.42 112.229 203.612 112.452C203.917 112.785 204.221 113.228 204.305 113.477C204.499 114.087 206.217 114.281 211.428 114.281C213.839 114.281 216.167 114.364 216.666 114.447L217.525 114.614L215.862 116.609C213.34 119.63 212.814 120.295 212.01 121.459C211.622 122.068 210.485 123.399 209.488 124.424C208.49 125.477 207.298 126.863 206.827 127.5C206.383 128.138 204.471 130.244 202.586 132.184C199.787 135.066 199.122 135.62 198.817 135.315C196.378 132.655 194.105 129.856 193.523 128.775C193.107 128.054 192.442 127.057 192.026 126.613C191.223 125.754 188.978 122.456 188.978 122.179C188.978 122.096 188.506 121.376 187.924 120.572C187.342 119.768 186.289 117.939 185.596 116.47C184.876 115.029 184.099 113.671 183.878 113.477C183.656 113.283 183.323 112.674 183.129 112.12C182.963 111.565 182.547 110.789 182.187 110.401C181.854 110.013 181.106 108.905 180.524 107.907C178.861 105.136 176.256 102.642 175.009 102.642C174.399 102.642 171.017 106.078 169.715 108.018C169.105 108.933 168.024 110.429 167.303 111.344C166.583 112.286 165.197 114.226 164.199 115.667C163.229 117.108 162.01 118.687 161.511 119.159C160.984 119.63 160.014 120.683 159.321 121.486C156.577 124.729 151.006 130.438 148.512 132.516C147.071 133.736 145.324 135.315 144.632 136.008C143.966 136.701 143.273 137.283 143.107 137.283C142.719 137.283 138.229 133.154 134.986 129.8C132.658 127.445 130.219 124.313 130.219 123.731C130.219 123.399 146.932 123.316 149.648 123.676C151.505 123.897 152.558 123.537 153.612 122.318C155.413 120.184 153.889 116.692 150.757 115.778C149.094 115.279 144.022 114.808 142.858 115.029C142.026 115.196 141.915 114.697 142.525 113.477C142.747 113.062 142.969 111.898 142.996 110.872C143.052 109.293 142.969 108.905 142.47 108.378C142.137 108.018 141.86 107.547 141.86 107.297C141.86 106.549 138.894 105.33 137.01 105.302C134.072 105.247 132.824 105.801 130.579 108.129C128.889 109.875 128.556 110.374 128.556 111.122C128.556 111.815 128.251 112.397 127.392 113.394C126.117 114.835 124.953 115.473 124.122 115.168C123.539 114.946 122.015 113.089 121.738 112.286C121.599 111.842 121.405 111.759 120.796 111.898C120.297 111.981 119.881 111.898 119.687 111.648C119.437 111.344 119.548 111.205 120.297 110.983C121.045 110.762 120.796 110.734 118.717 110.706C116.361 110.706 116.167 110.734 115.141 111.51C114.532 111.981 113.894 112.341 113.7 112.341C113.201 112.341 111.649 113.699 111.344 114.392C111.206 114.725 110.845 115.279 110.541 115.667C109.155 117.413 108.379 121.57 109.321 122.346C109.931 122.844 111.899 123.399 114.282 123.731C115.335 123.87 116.25 124.036 116.306 124.119C116.361 124.175 115.169 126.059 113.672 128.332C112.594 129.949 111.573 131.567 111.014 132.521C110.701 133.402 109.983 134.413 109.118 135.398H109.293L109.064 135.459C107.716 136.984 106.031 138.442 104.968 139.267C105.239 139.266 105.274 139.312 105.274 139.389C105.274 139.5 104.692 140.331 103.972 141.273C102.697 142.909 99.3986 146.068 96.5438 148.313C95.7955 148.922 94.6037 149.92 93.9108 150.557C93.2179 151.167 92.5804 151.694 92.4696 151.694C92.3864 151.694 91.8875 152.026 91.3886 152.442C90.8897 152.885 90.086 153.467 89.5871 153.772C89.0882 154.077 87.8409 154.936 86.8154 155.656C85.8177 156.377 84.9585 156.959 84.9307 156.904C84.903 156.848 84.2378 155.85 83.4341 154.687C82.658 153.523 81.9928 152.497 81.9928 152.386C81.9928 152.303 81.6879 151.804 81.2999 151.306C80.9396 150.807 80.4407 149.975 80.1913 149.449C79.9418 148.95 79.4429 148.008 79.0826 147.398C78.6946 146.788 78.1403 145.818 77.8354 145.264C77.5305 144.682 77.0316 144.1 76.699 143.934C76.3941 143.768 76.1724 143.407 76.2278 143.158C76.2556 142.909 76.1447 142.41 75.9507 142.049C75.8189 141.808 75.7394 141.662 75.7809 141.572C75.8443 141.435 76.189 141.429 77.0593 141.412C79.0094 141.395 86.2514 140.92 92.4339 140.449L91.7535 134.666L91.7489 134.678C91.6028 135.087 91.5338 135.28 91.497 135.274C91.4641 135.269 91.4572 135.103 91.4441 134.789C91.4163 134.401 91.25 133.763 91.0283 133.375C90.8343 132.96 90.4463 131.962 90.1691 131.158C89.3931 128.72 88.7556 127.916 87.5915 127.722C87.0372 127.639 85.5959 127.389 84.4041 127.168C83.2401 126.946 81.6048 126.724 80.801 126.724L79.3598 126.696L80.7456 126.336C81.5216 126.142 82.658 125.948 83.3232 125.948C84.1824 125.921 85.1248 125.56 86.9263 124.563C88.2567 123.814 89.5871 122.955 89.9197 122.65C90.2245 122.346 90.9452 121.958 91.4718 121.764C92.0261 121.542 93.3842 120.738 94.4651 119.907C95.5738 119.103 96.627 118.438 96.7933 118.438C97.1813 118.438 100.286 116.526 101.477 115.584C104.471 113.173 107.547 110.956 111.206 108.572C112.73 107.602 113.756 106.799 113.534 106.799C113.284 106.799 112.924 106.605 112.73 106.355C111.899 105.33 111.123 105.358 109.182 106.411C108.185 106.993 107.048 107.741 106.66 108.129C106.272 108.489 105.358 109.099 104.609 109.487C103.861 109.875 102.364 110.762 101.283 111.482C98.5394 113.339 96.9042 114.392 96.4053 114.641C96.1835 114.752 95.2412 115.39 94.3266 116.082C93.4119 116.775 92.3033 117.496 91.8321 117.718C91.3886 117.912 90.7512 118.355 90.474 118.687C90.1691 118.992 89.8365 119.269 89.6979 119.269C89.5871 119.269 88.8664 119.713 88.1181 120.239C87.3975 120.766 86.7046 121.209 86.5937 121.209C86.4829 121.209 84.8753 122.124 83.0183 123.232C81.1613 124.341 79.2766 125.422 78.8609 125.643C78.4174 125.865 76.6713 126.946 74.9806 128.027C72.7633 129.44 71.8764 130.161 71.9041 130.521C71.9318 130.826 72.015 131.574 72.1258 132.211C72.209 132.876 72.1813 133.403 72.0704 133.403C71.9595 133.403 71.4052 132.96 70.8232 132.405L69.77 131.408L68.2733 132.322C67.4418 132.821 66.7489 133.403 66.7489 133.597C66.7489 134.068 68.9108 138.336 69.2711 138.558C69.4374 138.641 69.8531 139.389 70.1857 140.193C70.546 140.996 70.9895 141.745 71.1558 141.828C71.3221 141.939 71.8487 142.742 72.2921 143.629C72.7356 144.516 73.4285 145.624 73.8165 146.123C74.2323 146.594 74.4817 146.982 74.3986 146.982C74.1768 146.982 75.2855 149.116 76.5604 151.056C80.2467 156.654 81.5494 159.01 81.3553 159.536C81.1613 160.063 78.0294 162.114 77.9185 161.809C77.8631 161.642 77.087 160.368 76.1724 158.954C75.2578 157.541 74.5094 156.294 74.5094 156.183C74.5094 156.072 73.7334 154.742 72.791 153.218C71.8487 151.694 70.6846 149.698 70.2134 148.784C69.7422 147.869 68.8553 146.373 68.2456 145.458C67.6081 144.544 66.8875 143.352 66.6103 142.825C66.3331 142.299 65.4739 140.858 64.6979 139.638C62.1757 135.759 61.8154 135.149 61.3165 134.068C61.0393 133.458 60.7622 132.904 60.7067 132.793C60.5682 132.516 63.6169 130.355 65.2245 129.579C65.9728 129.191 66.8597 128.664 67.1646 128.359C67.8853 127.666 70.8509 125.754 73.1791 124.452C74.2046 123.87 75.1192 123.288 75.2023 123.149C75.3132 122.983 75.8952 122.595 76.5327 122.29C77.1702 121.958 78.8886 120.932 80.3298 119.962C81.7711 119.02 83.9052 117.69 85.0416 117.052C86.8986 115.972 87.841 115.334 89.199 114.198C89.4208 114.032 90.1691 113.561 90.862 113.2C91.5549 112.84 92.4418 112.258 92.8576 111.926C93.9108 111.039 96.821 109.293 97.2368 109.293C97.4031 109.293 98.2068 108.739 98.9829 108.046C99.7867 107.353 100.563 106.799 100.729 106.799C100.895 106.799 101.56 106.411 102.17 105.967C102.808 105.496 103.417 105.136 103.528 105.136C103.611 105.136 104.332 104.72 105.108 104.194C105.884 103.695 107.409 102.753 108.462 102.115C109.543 101.45 111.289 100.286 112.37 99.5101C113.451 98.7065 114.947 97.6811 115.696 97.2377C117.996 95.7966 118.966 95.2146 119.964 94.6327C120.491 94.3001 121.682 93.4964 122.597 92.8036C123.512 92.1108 124.62 91.3348 125.064 91.0577C125.507 90.8083 126.2 90.3095 126.616 89.9492C127.032 89.6166 127.531 89.3395 127.669 89.3395C127.835 89.3395 128.14 89.1732 128.334 88.9792C129.304 88.0647 131.023 86.8731 131.91 86.4851C132.464 86.2634 133.767 85.432 134.82 84.656C140.696 80.3328 142.442 79.0857 142.691 79.0857C142.83 79.0857 144.742 77.8941 146.904 76.3976C149.094 74.9288 151.865 73.072 153.085 72.2684C154.305 71.4647 155.552 70.6056 155.857 70.3839C157.326 69.2199 167.996 61.9592 169.022 61.4049C169.41 61.2109 169.909 60.8784 170.13 60.6567ZM178.639 79.3629C178.14 79.3629 177.254 79.058 176.644 78.67C175.147 77.7555 173.179 77.8664 171.045 79.0026C169.632 79.7786 169.576 79.7786 169.576 79.1412C169.576 78.8917 169.327 79.1966 169.022 79.8063C168.689 80.4437 167.359 82.051 166.001 83.4089C164.67 84.7669 163.368 86.2079 163.091 86.6236C162.675 87.2887 162.536 87.3442 161.926 87.067C161.566 86.9008 161.261 86.6236 161.261 86.4851C161.261 86.3465 160.873 85.7923 160.43 85.2657C159.792 84.5452 159.654 84.2126 159.848 83.8246C160.042 83.4921 159.986 83.021 159.654 82.3281C159.21 81.3305 158.684 80.9425 158.795 81.6353C158.878 82.4113 158.739 82.6884 158.268 82.6884C157.991 82.6884 157.52 82.8547 157.215 83.0764C156.744 83.4367 156.633 83.4089 156.217 83.0487C155.773 82.633 155.663 82.633 155.219 83.0487C154.526 83.6584 153.916 83.6306 152.642 82.9101C151.671 82.3559 151.561 82.3559 150.895 82.7715C150.341 83.1595 150.23 83.4367 150.23 84.4897C150.258 85.4874 149.953 86.3742 148.706 88.8684C147.819 90.5589 147.126 92.1385 147.126 92.3602C147.126 92.5819 146.71 92.3048 146.239 91.7228C145.047 90.3926 143.745 90.1432 141.998 90.9746C141.333 91.2794 140.64 91.5565 140.53 91.5565C140.003 91.5565 137.758 93.8013 137.592 94.4941C137.52 94.7689 137.539 95.1931 137.613 95.635C143.373 96.2182 158.666 95.6039 166.838 95.1436C168.017 95.3401 170.2 95.6876 172.873 96.1079C182.15 95.8683 190.36 95.4622 194.53 94.8073L196.885 86.4578C196.813 86.0032 196.718 85.6379 196.599 85.3488C195.962 83.8246 194.16 82.2727 191.5 80.9702C189.532 80.0003 188.839 79.8063 187.037 79.6954L184.876 79.5846L183.628 80.7208C182.88 81.4136 182.242 81.8016 181.965 81.7185C181.466 81.5245 180.663 82.6053 180.136 84.2126C179.914 84.8223 179.526 85.82 179.249 86.4019C178.944 87.0116 178.723 87.649 178.723 87.7876C178.723 87.9539 178.445 88.6467 178.113 89.3395L177.531 90.5866L177.309 89.4781C177.06 88.2033 177.475 85.9308 178.057 85.432C178.279 85.2657 178.445 84.9054 178.445 84.656C178.445 84.4066 178.889 83.5198 179.388 82.6884C180.191 81.4413 180.302 81.1088 179.997 80.8039C179.748 80.5545 179.471 80.5268 178.917 80.7208C178.334 80.9425 178.168 80.9425 178.168 80.6099C178.168 80.1111 178.723 79.7786 179.388 79.8894C179.693 79.9171 179.831 79.834 179.72 79.6677C179.609 79.5014 179.111 79.3629 178.639 79.3629ZM197.597 133.126C197.736 133.126 197.791 132.987 197.708 132.849C197.625 132.682 197.486 132.572 197.403 132.572C197.348 132.572 197.292 132.682 197.292 132.849C197.292 132.987 197.431 133.126 197.597 133.126Z" fill="black"/>
<path d="M139.476 172.755C139.532 172.755 140.64 172.146 141.915 171.37C145.158 169.457 145.269 169.651 142.137 171.73C140.696 172.7 138.894 173.919 138.118 174.446C137.37 175 135.624 176.053 134.266 176.801C132.908 177.55 131.466 178.464 131.078 178.852C130.69 179.24 129.305 179.988 128.002 180.515C126.699 181.041 124.537 182.011 123.179 182.677C121.849 183.314 120.518 183.84 120.269 183.785C119.992 183.73 120.241 183.508 120.934 183.175C124.343 181.596 129.748 178.797 131.189 177.827C132.104 177.245 133.739 176.247 134.792 175.665C135.873 175.083 137.315 174.169 138.035 173.67C138.756 173.171 139.421 172.755 139.476 172.755Z" fill="black"/>
<path d="M265.086 175.305C265.641 176.275 266.389 177.217 266.5 177.106C266.666 176.912 265.391 174.972 265.114 174.972C264.976 174.972 264.976 175.139 265.086 175.305Z" fill="black"/>
<path d="M180.385 247.94C180.385 251.765 180.496 253.954 180.663 253.954C181.023 253.954 181.023 253.926 180.968 247.719C180.94 244.809 180.801 242.342 180.663 242.204C180.469 242.01 180.385 244.116 180.385 247.94Z" fill="black"/>
<path fill-rule="evenodd" clip-rule="evenodd" d="M155.58 202.191C155.479 202.342 155.077 202.467 154.675 202.467C154.272 202.467 153.618 202.593 153.241 202.744C148.838 204.555 147.354 206.039 146.222 209.888C145.819 211.321 145.643 214.893 145.97 215.245C146.046 215.321 146.121 215.673 146.121 216.025C146.121 217.685 148.813 221.282 150.851 222.313C151.379 222.59 152.612 223.043 153.643 223.344C155.806 223.998 157.869 223.923 159.58 223.093C160.158 222.816 160.687 222.59 160.787 222.59C161.24 222.59 164.209 219.999 164.812 219.094C165.743 217.71 166.498 215.195 166.498 213.535C166.498 211.573 165.617 208.353 164.686 206.995C163.202 204.781 159.479 202.467 157.442 202.467C156.787 202.467 156.159 202.342 156.008 202.191C155.806 201.99 155.681 201.99 155.58 202.191ZM157.492 210.542C158.322 210.919 158.976 211.925 159.127 213.006C159.253 213.837 159.152 214.038 158.347 214.742C157.291 215.673 156.511 215.924 155.303 215.698C153.593 215.371 152.687 213.208 153.643 211.699C153.92 211.221 154.423 210.718 154.725 210.567C155.479 210.215 156.762 210.189 157.492 210.542Z" fill="black"/>
<path d="M193.806 202.189C193.63 202.365 193.806 202.641 195.315 204.553C195.617 204.955 195.869 205.509 195.869 205.811C195.869 206.112 196.07 206.54 196.322 206.792C196.548 207.018 196.925 207.496 197.152 207.848C197.504 208.376 197.63 208.427 198.384 208.2C198.837 208.074 199.441 207.672 199.692 207.32C200.221 206.616 200.699 204.955 200.422 204.704C200.346 204.603 200.271 204.452 200.271 204.377C200.246 203.924 199.315 202.868 198.711 202.591C197.932 202.239 194.057 201.912 193.806 202.189Z" fill="black"/>
<path d="M231.09 202.063V223.694H232.574C233.379 223.694 234.511 223.518 235.09 223.317C235.668 223.116 236.146 222.965 236.197 222.965C236.297 222.99 237.756 222.412 238.536 222.034C240.574 221.053 243.114 216.828 243.366 213.985C243.618 211.118 241.655 206.062 239.794 204.704C237.681 203.195 234.436 202.063 232.197 202.063H231.09Z" fill="black"/>
<path fill-rule="evenodd" clip-rule="evenodd" d="M174.288 108.018C173.9 108.24 173.29 108.933 172.902 109.57C172.514 110.207 171.655 111.51 170.962 112.452C170.439 113.142 169.743 114.147 169.183 114.957L169.182 114.958C169 115.221 168.832 115.463 168.689 115.667C168.135 116.498 166.86 118.133 165.834 119.269C164.809 120.406 163.783 121.653 163.534 122.041C163.312 122.429 162.564 123.26 161.899 123.925C161.234 124.563 160.707 125.283 160.707 125.477C160.707 125.671 160.402 125.976 160.042 126.142C159.681 126.309 158.684 127.334 157.824 128.387C156.965 129.468 155.607 130.826 154.803 131.435C154 132.017 152.42 133.431 151.256 134.539C148.207 137.477 144.521 140.664 143.495 141.218C142.636 141.689 142.608 141.689 141.333 140.719C138.811 138.807 133.462 133.375 127.919 127.084C126.283 125.228 124.759 123.704 124.565 123.704C124.371 123.704 123.65 124.147 122.985 124.673C122.32 125.2 121.516 125.643 121.184 125.643C120.186 125.643 116.971 129.44 115.003 132.904C114.338 134.068 113.423 135.426 112.98 135.897C112.564 136.368 111.982 137.172 111.732 137.643C111.511 138.142 110.929 139.029 110.457 139.638C109.127 141.384 99.4541 150.779 97.9297 151.832C97.1536 152.359 96.239 153.079 95.851 153.495C95.4907 153.883 95.0472 154.188 94.8809 154.188C94.6869 154.188 94.0494 154.687 93.4674 155.296C92.8576 155.934 91.5827 156.987 90.5849 157.652C90.162 157.945 89.6295 158.309 89.0846 158.681L89.0826 158.682C88.3425 159.187 87.5796 159.708 87.0372 160.091C86.0671 160.756 85.1802 161.421 85.0971 161.559C84.7645 162.003 82.5472 163.693 78.3897 166.659C76.1724 168.238 73.9828 169.845 73.5117 170.233C73.0405 170.621 71.821 171.564 70.7955 172.34C70.0807 172.861 69.11 173.585 68.2965 174.191L68.2955 174.192C67.9423 174.455 67.6187 174.696 67.3587 174.889C66.4995 175.554 65.474 176.192 65.1136 176.358C64.7256 176.524 63.9773 177.051 63.423 177.55C62.1203 178.658 56.0227 183.12 55.5793 183.259C55.3852 183.314 54.4429 184.062 53.4451 184.949C52.4473 185.808 50.7012 187.166 49.5648 187.97C47.2921 189.522 45.8231 190.741 46.0172 190.907C46.0726 190.963 48.3453 191.046 51.0615 191.101L64.2551 191.184L55.9119 239.266H76.8376C90.3077 239.266 97.7911 239.349 97.7911 239.543C97.7911 239.682 97.4862 240.015 97.1259 240.236C96.7656 240.486 96.0173 241.317 95.4907 242.121C95.0586 242.747 94.4581 243.592 93.9912 244.25L93.6337 244.753C93.1902 245.391 92.8022 246.028 92.8022 246.139C92.8299 246.389 96.7102 249.215 99.5372 251.044C101.644 252.402 103.861 254.01 104.277 254.481C104.554 254.786 105.469 255.451 106.3 255.949C107.159 256.448 108.074 257.086 108.351 257.335C108.628 257.585 109.21 257.972 109.626 258.194C110.042 258.416 110.651 258.859 110.929 259.192C111.233 259.524 111.594 259.774 111.732 259.774C111.899 259.774 113.229 260.688 114.698 261.769C118.246 264.43 119.881 265.621 120.962 266.286C121.461 266.591 122.625 267.395 123.539 268.088C124.482 268.781 125.84 269.75 126.561 270.222C127.281 270.72 128.556 271.635 129.388 272.272C130.219 272.882 131.3 273.658 131.799 273.991C132.686 274.6 134.155 275.653 138.201 278.619C139.476 279.533 140.585 280.281 140.668 280.281C140.751 280.281 141.389 280.752 142.109 281.362C142.802 281.944 143.883 282.72 144.493 283.053C145.103 283.385 145.99 283.995 146.433 284.411C146.904 284.826 148.013 285.658 148.928 286.295C149.842 286.905 151.394 287.986 152.392 288.706C152.815 288.999 153.327 289.352 153.84 289.706L153.856 289.717C154.549 290.195 155.242 290.673 155.718 291.006C156.55 291.561 157.63 292.336 158.102 292.724C158.573 293.112 159.321 293.667 159.765 293.916C160.208 294.193 161.649 295.191 162.98 296.133C168.357 300.013 169.05 300.512 169.16 300.512C169.41 300.512 172.209 302.563 173.096 303.366C173.602 303.839 173.81 304.034 173.957 303.995C174.061 303.969 174.135 303.828 174.26 303.588C174.454 303.283 175.036 302.757 175.618 302.452C176.173 302.147 177.946 300.955 179.554 299.819C181.162 298.655 183.268 297.186 184.266 296.521C185.264 295.856 186.317 295.052 186.594 294.72C186.899 294.387 187.231 294.138 187.342 294.138C187.564 294.138 188.118 293.75 192.442 290.674C192.894 290.357 193.411 289.994 193.939 289.623L193.939 289.622L193.952 289.614C195.038 288.849 196.17 288.053 196.877 287.57C198.9 286.212 200.84 284.771 201.311 284.272C201.644 283.912 203.861 282.498 204.083 282.498C204.166 282.498 204.526 282.249 204.859 281.916C205.607 281.196 210.458 277.787 210.735 277.787C210.818 277.787 211.622 277.178 212.481 276.429C214.227 274.96 216.721 273.187 219.188 271.69C220.047 271.164 221.295 270.277 221.904 269.75C223.457 268.42 224.427 267.727 225.563 267.09C226.09 266.813 226.977 266.175 227.503 265.704C228.03 265.233 228.972 264.568 229.582 264.236C230.192 263.875 231.134 263.21 231.661 262.767C232.464 262.074 237.093 258.776 241.777 255.534C242.387 255.118 243.579 254.259 244.41 253.649C245.242 253.04 246.821 251.959 247.875 251.266C250.702 249.409 252.725 247.996 254.332 246.749L255.247 246.028L254.471 244.975C254.055 244.393 253.307 243.479 252.836 242.924C251.81 241.705 250.508 239.765 250.508 239.488C250.508 239.349 262.536 239.266 277.254 239.266C294.105 239.266 304 239.155 304 238.989C304 238.851 303.501 237.631 302.919 236.301C300.979 231.978 299.649 228.625 299.427 227.627C299.316 227.1 299.122 226.518 299.011 226.38C298.9 226.214 298.706 225.659 298.595 225.133C298.484 224.606 298.096 223.719 297.736 223.193C297.376 222.666 297.071 222.112 297.071 222.001C297.071 221.863 296.877 221.308 296.627 220.754L296.556 220.588L296.455 220.354C296.252 219.883 296.048 219.411 295.962 219.174C295.876 218.938 295.673 218.467 295.47 217.995L295.378 217.783L295.297 217.595C295.048 217.041 294.854 216.459 294.854 216.292C294.854 216.098 294.493 215.184 294.05 214.214C293.579 213.272 293.135 212.135 293.024 211.72C292.913 211.276 292.415 210.085 291.916 209.059C291.417 208.034 290.862 206.648 290.696 205.983C290.502 205.318 290.059 204.265 289.698 203.628C289.338 202.99 288.728 201.632 288.368 200.579C288.008 199.526 287.259 197.531 286.677 196.173C286.095 194.787 285.458 193.097 285.264 192.404C285.042 191.711 284.571 190.602 284.211 189.91C283.823 189.245 283.268 188.164 282.963 187.499C282.658 186.833 282.16 185.974 281.855 185.531C281.55 185.115 281.023 184.062 280.718 183.175C280.386 182.316 279.831 181.263 279.443 180.82C279.083 180.376 278.529 179.49 278.224 178.824C277.392 177.079 276.117 174.778 275.037 173.171C274.538 172.395 273.9 171.342 273.651 170.815C273.374 170.289 272.514 168.848 271.711 167.628C270.907 166.409 270.214 165.273 270.158 165.134C270.103 164.968 269.493 163.943 268.8 162.834C268.417 162.22 268.042 161.598 267.755 161.123L267.754 161.121C267.523 160.739 267.35 160.451 267.276 160.34C267.137 160.091 266.5 159.148 265.89 158.261C265.28 157.375 264.698 156.46 264.587 156.238C264.005 155.185 262.924 153.384 262.232 152.414C261.899 151.943 261.151 150.834 260.569 149.92C259.488 148.257 257.464 145.902 257.409 146.234C257.388 146.317 257.367 146.447 257.347 146.577C257.34 146.62 257.333 146.664 257.326 146.705C257.27 147.176 256.771 146.871 256.744 146.373C256.661 145.486 256.328 145.486 256.328 146.373C256.328 147.093 256.189 147.232 255.524 147.398C254.693 147.564 254.499 147.814 252.448 151.139C251.921 152.026 250.923 153.467 250.23 154.354C249.538 155.241 248.678 156.488 248.29 157.098C247.099 159.065 245.934 160.534 245.63 160.562C244.853 160.589 239.144 153.107 236.178 148.229C235.984 147.925 234.82 145.541 233.601 142.964C232.353 140.359 231.217 138.031 231.079 137.782C230.94 137.505 230.829 137.061 230.829 136.784C230.829 136.507 230.58 135.759 230.275 135.121C229.97 134.512 229.72 133.874 229.72 133.736C229.72 133.597 229.443 132.876 229.111 132.128C228.778 131.38 228.251 129.773 227.919 128.553C227.586 127.334 226.782 124.59 226.145 122.456C225.48 120.323 224.926 118.438 224.898 118.299C224.537 116.942 223.069 114.835 222.514 114.835C222.098 114.835 219.355 117.69 217.082 120.517C216.606 121.099 216.148 121.664 215.745 122.16L215.743 122.163L215.741 122.165L215.737 122.17C214.995 123.085 214.446 123.762 214.338 123.87C214.199 124.036 213.312 125.145 212.398 126.336C211.483 127.528 210.097 129.135 209.349 129.911C208.573 130.687 207.215 132.128 206.328 133.126C205.413 134.124 203.362 136.285 201.755 137.948L198.845 140.969L198.179 140.165C198.056 140.024 197.882 139.821 197.678 139.583L197.677 139.582C197.24 139.073 196.666 138.403 196.156 137.837C194.521 135.953 193.689 134.9 193.689 134.65C193.689 134.567 192.608 133.209 191.306 131.657C189.975 130.133 188.756 128.47 188.562 128.027C188.34 127.556 187.869 126.863 187.481 126.503C187.093 126.115 186.372 125.006 185.873 124.008C185.402 123.011 184.682 121.736 184.266 121.209C183.85 120.683 183.434 119.962 183.323 119.602C183.213 119.269 183.019 118.992 182.908 118.992C182.686 118.992 180.774 115.805 178.972 112.397C178.113 110.789 175.591 107.602 175.175 107.63C175.064 107.658 174.676 107.824 174.288 108.018ZM174.648 119.962C174.676 120.267 174.815 120.683 174.953 120.877C175.064 121.071 175.23 122.706 175.313 124.507C175.452 127.389 175.397 127.971 174.842 129.689C174.51 130.743 174.066 131.796 173.872 132.017C173.706 132.239 172.985 133.569 172.265 134.955C171.572 136.341 170.352 138.336 169.576 139.389C168.772 140.442 167.913 141.745 167.636 142.271C167.359 142.798 166.805 143.546 166.389 143.934C165.142 145.098 163.451 147.814 163.977 147.814C164.088 147.814 164.615 147.453 165.142 147.038C165.668 146.594 166.527 146.096 167.026 145.902C167.497 145.68 167.913 145.43 167.913 145.32C167.913 145.209 168.44 144.765 169.077 144.35C171.017 143.075 177.226 136.618 177.808 135.26C178.196 134.373 178.861 134.262 179.083 135.066C179.415 136.313 178.279 139.167 176.588 141.384C176.145 141.939 175.424 142.936 175.009 143.601C174.565 144.266 173.761 145.181 173.235 145.652C172.68 146.123 171.96 146.927 171.599 147.453C170.823 148.59 168.994 150.446 166.389 152.663C165.308 153.578 164.393 154.437 164.338 154.576C164.282 154.714 163.645 155.49 162.897 156.294C160.735 158.677 160.762 158.677 165.696 155.435C167.608 154.188 169.604 152.941 170.13 152.663C170.657 152.386 171.544 151.777 172.098 151.306C172.343 151.098 172.647 150.836 172.956 150.57C173.346 150.233 173.744 149.89 174.038 149.643C174.485 149.29 175.35 148.539 176.11 147.88L176.116 147.874L176.132 147.86C176.261 147.749 176.386 147.64 176.505 147.537C181.3 143.352 183.019 141.994 183.102 142.271C183.157 142.437 183.129 143.269 183.019 144.1C182.825 145.624 181.688 147.647 179.443 150.391C178.057 152.082 170.13 160.007 169.826 160.007C169.687 160.007 168.772 160.728 167.775 161.587C163.894 165.079 162.758 166.021 162.121 166.381C161.123 166.908 158.961 168.598 158.545 169.18C158.351 169.458 157.63 170.095 156.938 170.566C155.164 171.758 155.579 171.841 157.52 170.677C158.434 170.15 159.293 169.707 159.46 169.707C159.654 169.707 159.986 169.485 160.236 169.208C160.485 168.931 161.843 168.127 163.257 167.379C164.67 166.659 166.527 165.633 167.359 165.134C167.748 164.888 168.252 164.581 168.757 164.273L168.758 164.273C169.334 163.922 169.912 163.571 170.325 163.305C171.128 162.834 172.071 162.169 172.431 161.836C173.207 161.171 173.373 161.033 176.478 159.037C177.78 158.206 179.221 157.153 179.665 156.737C180.718 155.767 183.407 153.772 183.656 153.772C183.739 153.772 183.878 154.271 183.933 154.881C184.016 156.128 183.85 156.377 180.94 158.539C180.108 159.148 178.418 160.645 177.198 161.809C175.979 163 174.537 164.247 174.011 164.608C172.376 165.744 170.13 167.407 168.966 168.377C168.329 168.876 167.442 169.541 166.943 169.845C165.779 170.566 159.931 174.446 157.88 175.831C157.021 176.441 156.189 176.912 156.051 176.912C155.884 176.912 154.914 177.577 153.861 178.353C152.836 179.157 151.422 180.099 150.729 180.432C150.036 180.764 149.648 181.069 149.87 181.069C150.092 181.069 151.089 180.681 152.087 180.21C156.023 178.326 157.27 177.716 157.935 177.328C158.323 177.106 159.765 176.358 161.123 175.721C162.509 175.056 164.116 174.224 164.726 173.864C166.472 172.811 170.546 170.871 170.657 170.982C170.667 170.991 170.677 171 170.687 171.007C170.703 171.02 170.716 171.03 170.721 171.044C170.75 171.127 170.464 171.319 168.479 172.651C168.189 172.845 167.864 173.064 167.497 173.31L167.084 173.592C165.542 174.645 163.962 175.725 163.479 176.081C162.952 176.497 161.899 177.162 161.123 177.605C160.374 178.021 159.681 178.436 159.598 178.547C159.46 178.714 158.711 179.268 157.132 180.293C156.272 180.875 155.69 181.18 150.591 183.84C148.456 184.949 146.516 186.002 146.295 186.196C145.518 186.861 140.751 187.194 132.769 187.111C128.445 187.083 124.842 186.944 124.759 186.833C124.704 186.695 124.482 186.695 124.316 186.833C123.9 187.138 112.398 187.249 112.592 186.944C112.675 186.806 113.451 186.473 114.338 186.196C115.225 185.891 116.139 185.531 116.361 185.337C116.583 185.171 117.276 184.838 117.885 184.644C118.495 184.422 119.243 184.034 119.548 183.73C119.853 183.453 120.491 183.065 120.934 182.871C121.405 182.649 122.459 182.039 123.262 181.513C124.066 180.958 124.898 180.515 125.064 180.515C125.258 180.515 125.701 180.21 126.062 179.822C126.422 179.434 126.81 179.129 126.949 179.129C127.281 179.129 129.97 177.356 132.436 175.471C138.395 170.954 140.64 169.18 141.832 168.044C142.387 167.518 143.218 166.825 143.661 166.52C144.826 165.689 147.071 163.666 148.235 162.363C148.761 161.781 150.064 160.368 151.117 159.259C152.17 158.178 153.224 156.904 153.501 156.488C153.75 156.044 154.72 154.908 155.607 153.911C158.129 151.195 156.328 152.497 153.14 155.684C151.588 157.264 149.759 158.927 149.066 159.37C148.373 159.841 147.265 160.756 146.572 161.421C145.186 162.779 143.689 163.915 140.197 166.298C138.894 167.185 137.398 168.266 136.843 168.682C136.289 169.125 135.457 169.679 134.959 169.929C134.487 170.178 132.769 171.231 131.161 172.257C129.554 173.31 128.168 174.141 128.113 174.141C128.03 174.141 127.447 174.501 126.81 174.945C126.173 175.36 125.147 175.97 124.537 176.275C120.186 178.464 118.828 179.129 118.661 179.129C118.551 179.129 118.273 179.296 118.052 179.49C117.802 179.711 116.804 180.155 115.807 180.487C114.809 180.848 113.894 181.235 113.756 181.374C113.589 181.513 113.284 181.623 113.035 181.623C112.786 181.623 111.899 181.956 111.067 182.344C110.236 182.76 109.46 183.092 109.293 183.12C109.155 183.148 108.905 183.231 108.739 183.342C108.6 183.425 107.852 183.591 107.076 183.702L107.066 183.704C106.321 183.842 105.579 183.979 105.413 184.007C104.942 184.145 101.865 184.921 100.618 185.226C98.5394 185.725 98.0683 185.531 99.6204 184.838C100.369 184.478 101.505 184.034 102.115 183.84C106.993 182.316 119.853 175.083 125.424 170.76C126.394 170.039 127.226 169.43 127.281 169.43C127.642 169.43 134.737 163.638 137.12 161.393C137.841 160.7 139.061 159.703 139.781 159.176C140.53 158.649 141.638 157.707 142.276 157.098C142.885 156.488 144.521 154.936 145.879 153.661L148.373 151.333L146.572 152.58C142.885 155.158 142.47 155.462 141.278 156.432C139.864 157.596 135.18 160.562 134.765 160.562C134.598 160.562 134.072 161.005 133.545 161.532C133.018 162.058 132.492 162.502 132.353 162.502C132.215 162.502 131.217 163.084 130.164 163.804C129.083 164.497 127.253 165.605 126.089 166.243C123.318 167.739 121.322 168.876 119.188 170.095C118.246 170.621 117.525 170.954 117.608 170.815C117.775 170.538 121.017 168.044 121.211 168.044C121.378 168.044 123.955 166.326 124.122 166.077C124.205 165.993 124.648 165.716 125.092 165.467C125.563 165.245 126.422 164.663 127.032 164.192C127.385 163.919 127.803 163.609 128.162 163.343L128.164 163.342L128.165 163.341C128.425 163.148 128.654 162.978 128.806 162.862C129.147 162.599 129.886 161.989 130.505 161.477L130.506 161.477L130.507 161.476L130.607 161.393C131.217 160.839 132.242 160.035 132.852 159.592C134.155 158.649 135.125 157.79 136.705 156.238C137.314 155.629 138.839 154.215 140.058 153.135C142.608 150.862 145.463 148.257 145.879 147.814C146.045 147.647 146.516 147.176 146.987 146.761C150.341 143.657 156.91 137.394 159.321 134.955L163.7 130.576C164.476 129.773 165.142 128.997 165.142 128.83C165.169 128.692 165.89 127.916 166.805 127.168C167.691 126.392 168.44 125.671 168.44 125.533C168.468 125.394 169.133 124.563 169.936 123.704C170.713 122.844 171.987 121.403 172.736 120.544C174.038 118.992 174.454 118.854 174.648 119.962ZM180.275 124.978C181.134 126.115 181.965 127.029 182.076 127.029C182.215 127.029 182.492 127.389 182.741 127.833C182.963 128.276 183.85 129.468 184.682 130.465C185.513 131.435 186.206 132.405 186.206 132.599C186.206 132.793 186.76 133.708 187.453 134.622C188.146 135.565 189.726 137.699 191.001 139.389C193.966 143.38 194.521 144.156 194.521 144.322C194.521 144.571 192.331 146.844 192.22 146.705C192.165 146.622 191.306 145.375 190.308 143.934C189.31 142.493 188.035 140.802 187.481 140.193C186.927 139.583 186.483 139.001 186.483 138.89C186.483 138.779 186.123 138.142 185.652 137.477C185.208 136.784 184.82 136.147 184.82 136.036C184.82 135.953 184.46 135.398 184.016 134.844C183.573 134.29 182.935 133.292 182.603 132.655C182.27 132.017 181.854 131.38 181.66 131.214C181.466 131.047 181.078 130.382 180.801 129.745C180.524 129.08 180.136 128.359 179.97 128.138C179.776 127.916 179.499 127.278 179.277 126.752C179.14 126.381 178.934 125.858 178.757 125.407L178.756 125.404L178.646 125.125C178.614 125.043 178.584 124.966 178.556 124.895C178.335 124.424 178.085 123.62 177.974 123.094C177.808 122.262 177.836 122.207 178.251 122.54C178.501 122.761 179.415 123.842 180.275 124.978ZM223.346 129.108C223.475 129.64 223.585 130.136 223.66 130.473C223.714 130.714 223.75 130.874 223.761 130.909C223.774 130.946 223.803 131.05 223.844 131.196C223.894 131.376 223.962 131.619 224.039 131.879C224.149 132.322 224.343 132.821 224.454 132.987C224.565 133.126 224.926 134.318 225.258 135.62C225.591 136.923 226.034 138.336 226.228 138.807C227.475 141.551 227.78 142.243 227.78 142.382C227.78 142.521 229.305 145.846 231.051 149.476C231.688 150.779 232.686 152.636 233.296 153.633C233.906 154.631 234.626 155.878 234.903 156.405C235.153 156.931 236.04 158.206 236.844 159.204C237.647 160.201 238.312 161.116 238.312 161.227C238.312 161.476 240.447 164.358 240.807 164.58C241.306 164.885 241.112 165.578 239.92 167.379C238.645 169.319 238.063 169.679 237.204 169.07C236.428 168.515 232.298 163.194 231.467 161.642C231.189 161.116 230.635 160.257 230.219 159.703C229.804 159.176 229.194 158.123 228.861 157.402C228.529 156.654 227.947 155.462 227.531 154.77C227.115 154.077 226.727 153.412 226.699 153.301C226.672 153.19 226.339 152.414 225.979 151.61C225.618 150.779 225.175 149.587 225.009 148.922C224.842 148.285 224.593 147.537 224.454 147.287C224.094 146.622 223.429 144.544 222.902 142.548C222.265 139.999 221.96 126.392 222.57 127.029C222.791 127.251 223.152 128.193 223.346 129.108ZM218.19 130.826C217.858 132.904 217.886 143.823 218.19 147.453C218.44 150.252 218.44 150.308 217.858 150.308C217.165 150.308 214.643 148.146 213.7 146.788C212.703 145.347 212.398 145.735 212.453 148.257C212.481 149.449 212.564 150.751 212.675 151.139C212.758 151.527 212.897 152.331 212.952 152.941C213.174 155.047 214.144 158.04 215.419 160.645C216.112 162.086 216.694 163.388 216.694 163.527C216.694 163.693 216.971 164.164 217.331 164.608C217.664 165.023 218.329 165.966 218.773 166.686C220.519 169.43 221.821 171.287 222.902 172.534C223.54 173.226 224.399 174.224 224.815 174.751L225.161 175.14C225.567 175.595 226.042 176.13 226.339 176.469C226.921 177.079 226.977 177.189 226.533 176.968C226.228 176.829 225.48 176.136 224.842 175.471C224.763 175.392 224.681 175.309 224.596 175.224C224.514 175.141 224.43 175.056 224.345 174.971C223.81 174.431 223.237 173.852 222.902 173.559C222.459 173.143 221.239 171.73 220.158 170.4C219.105 169.042 217.775 167.434 217.248 166.825C215.696 165.051 214.199 163.111 214.199 162.917C214.199 162.834 213.894 162.335 213.534 161.864C213.174 161.365 212.675 160.506 212.425 159.897C211.594 157.874 207.741 155.019 204.942 154.354L204.138 154.16L204.582 154.853C204.859 155.241 205.053 155.74 205.053 155.989C205.053 156.238 205.33 156.959 205.635 157.596C205.968 158.234 206.217 158.76 206.162 158.76C206.106 158.76 207.076 160.894 208.462 163.832C208.933 164.774 209.46 165.689 209.626 165.827C209.82 165.993 210.264 166.769 210.596 167.518C211.76 170.261 216.555 176.025 222.32 181.623C223.041 182.344 223.623 182.981 223.623 183.092C223.623 183.397 221.71 182.289 219.881 180.931C218.967 180.238 217.913 179.462 217.525 179.185C215.779 177.965 210.458 172.728 208.379 170.206C207.52 169.18 206.466 167.601 206.023 166.686C205.386 165.411 205.025 164.968 204.443 164.857C204.027 164.746 203.612 164.552 203.529 164.414C203.418 164.275 202.947 164.164 202.42 164.164C201.838 164.164 201.2 163.915 200.702 163.499C199.648 162.612 198.262 162.308 198.013 162.945C197.902 163.194 198.013 163.61 198.235 163.859C198.429 164.109 198.872 164.857 199.177 165.55C203.03 174.169 206.688 178.908 212.259 182.593C213.174 183.175 213.368 183.425 213.035 183.508C212.481 183.619 209.183 182.095 207.935 181.152C207.464 180.82 206.938 180.515 206.799 180.515C206.494 180.515 205.413 179.573 200.591 175.083C198.373 173.032 197.071 172.201 194.16 170.982C193.19 170.566 190.086 170.344 190.086 170.705C190.086 171.037 190.807 172.173 192.303 174.141C193.163 175.277 194.604 177.189 195.491 178.381C197.098 180.543 199.26 182.732 199.759 182.732C199.925 182.732 200.203 183.009 200.369 183.342L200.702 183.924L199.731 183.369C199.205 183.065 197.958 182.455 196.988 182.011C195.408 181.319 193.135 179.85 192.913 179.379C192.497 178.492 191.971 178.215 190.197 177.993L189.499 177.901C188.575 177.779 187.553 177.643 186.982 177.577C186.945 177.572 186.91 177.567 186.875 177.562L186.755 177.544L186.754 177.544C186.272 177.472 185.976 177.428 185.825 177.555C185.586 177.755 185.702 178.378 186.001 179.982C186.031 180.141 186.062 180.309 186.095 180.487C186.4 182.261 186.76 183.231 187.453 184.256C187.98 185.004 188.423 186.002 188.479 186.473L188.562 187.305L186.594 187.332L184.626 187.388L183.628 184.284C183.074 182.593 182.547 180.931 182.464 180.57C182.353 180.238 182.215 179.961 182.104 179.988C181.744 180.016 180.746 181.457 179.72 183.425C179.166 184.506 178.418 185.753 178.057 186.196L177.392 187.027L168.495 187.083C163.589 187.111 159.598 187.027 159.598 186.917C159.598 186.833 159.959 186.501 160.402 186.252C161.483 185.614 165.53 182.621 166.195 181.984C166.444 181.707 167.054 181.263 167.497 180.958C168.384 180.404 169.188 179.739 170.352 178.492C170.768 178.076 171.211 177.744 171.378 177.744C171.544 177.744 172.043 177.356 172.514 176.885C172.958 176.413 173.65 175.804 174.066 175.554C174.482 175.305 176.089 173.892 177.669 172.423C177.897 172.215 178.133 172 178.374 171.779L178.708 171.474L178.713 171.47L178.716 171.467C180.055 170.244 181.466 168.955 182.187 168.321C184.654 166.132 193.966 157.042 193.966 156.82C193.966 156.71 194.382 156.211 194.881 155.74C196.544 154.077 199.815 150.53 200.563 149.504C200.951 148.95 201.755 148.008 202.309 147.398C204.388 145.126 206.605 142.548 207.686 141.135C208.296 140.359 209.183 139.306 209.654 138.835C210.818 137.699 213.091 134.872 213.091 134.567C213.091 134.428 213.894 133.458 214.865 132.405C215.242 131.996 215.636 131.574 215.995 131.189L215.997 131.186L216.001 131.182C216.562 130.582 217.035 130.075 217.22 129.856C218.19 128.803 218.44 129.052 218.19 130.826ZM129.803 135.786C130.413 136.535 131.217 137.588 131.577 138.114C131.938 138.641 132.436 139.306 132.686 139.555C132.935 139.805 133.268 140.193 133.434 140.387C134.127 141.218 136.317 143.103 136.538 143.103C136.843 143.103 138.534 144.932 138.534 145.264C138.534 145.375 137.73 146.262 136.732 147.232C135.491 148.454 135.105 148.834 134.795 148.78C134.655 148.755 134.53 148.643 134.349 148.479C133.739 147.952 131.549 144.848 130.773 143.435C130.565 143.044 130.037 142.112 129.582 141.311L129.582 141.31L129.581 141.308L129.498 141.163C129 140.304 128.39 139.001 128.14 138.253C127.115 135.398 126.062 132.156 126.062 131.907C126.062 131.629 128.224 133.874 129.803 135.786ZM121.987 133.32C121.96 133.375 122.071 133.791 122.209 134.29C122.375 134.789 122.542 135.426 122.597 135.703C122.633 135.881 122.725 136.194 122.823 136.528L122.823 136.529C122.878 136.716 122.935 136.91 122.985 137.089C123.872 139.888 124.177 141.966 123.872 143.352C123.456 145.292 121.572 148.59 119.742 150.53C119.077 151.25 118.024 152.719 118.024 152.913C118.024 153.412 123.013 148.784 123.817 147.537C124.343 146.733 125.036 145.791 125.396 145.403C125.757 145.015 126.062 144.516 126.062 144.322C126.062 143.851 126.45 143.823 126.81 144.266C127.503 145.153 127.226 151.333 126.45 152.553C126.311 152.774 126.2 152.996 126.2 153.079C126.062 154.16 123.179 157.818 120.934 159.73L120.658 159.975C119.833 160.707 118.42 161.961 117.359 162.973C116.167 164.109 114.67 165.384 114.033 165.772C113.395 166.187 112.813 166.659 112.675 166.852C112.564 167.019 112.037 167.434 111.483 167.795C110.929 168.127 110.042 168.82 109.46 169.319C108.905 169.845 108.351 170.261 108.185 170.261C108.046 170.289 107.464 170.649 106.937 171.093C106.411 171.564 105.884 171.924 105.773 171.924C105.469 171.924 102.531 173.808 101.727 174.529C101.062 175.111 99.953 175.748 97.2368 177.051C96.4053 177.439 95.4629 177.993 95.1581 178.27C94.8532 178.52 93.4674 179.323 92.0538 180.044C90.6403 180.737 89.2268 181.513 88.8665 181.734C88.5062 181.956 87.3698 182.455 86.2889 182.871C83.6004 183.896 81.9928 184.672 81.9928 184.949C81.9928 185.06 80.8288 185.586 79.4429 186.085C77.1702 186.889 76.4496 187 73.4285 187.083C71.2389 187.166 70.0471 187.111 70.1026 186.917C70.2134 186.667 78.8609 180.792 79.1658 180.792C79.2212 180.792 80.1358 180.127 81.1336 179.323C82.1314 178.492 84.2379 176.995 85.8177 175.942C87.3698 174.917 88.7279 173.947 88.811 173.808C88.8942 173.67 89.4208 173.282 90.0028 172.922C90.5572 172.561 91.6381 171.702 92.4141 171.009C94.7423 168.903 96.7656 167.13 98.1237 166.021C98.8166 165.439 99.6204 164.635 99.8975 164.22C100.341 163.555 100.258 163.555 99.2601 164.441C98.6226 164.968 97.5694 165.772 96.9319 166.187C96.2667 166.631 95.2135 167.351 94.6037 167.795C93.994 168.238 93.0239 168.931 92.4419 169.319C91.8598 169.679 90.9452 170.427 90.3631 170.926C89.8088 171.425 88.5062 172.284 87.4807 172.866C86.4829 173.42 85.4851 174.058 85.3188 174.28C85.1248 174.501 84.8476 174.695 84.6813 174.695C84.515 174.695 84.127 174.945 83.8221 175.222C83.4895 175.527 82.2977 176.358 81.1059 177.106C79.9418 177.827 77.3642 179.517 75.3964 180.848C73.4008 182.205 71.6824 183.286 71.5715 183.286C71.4607 183.286 70.1857 184.145 68.689 185.226C66.5826 186.723 65.8065 187.111 65.1968 187.055C64.7533 187 63.7833 186.944 63.0349 186.917L61.6768 186.889L62.342 186.224C62.5215 186.031 62.7216 185.83 62.8944 185.658L62.8955 185.657L62.8963 185.656C63.0696 185.482 63.2151 185.337 63.2844 185.254C63.7278 184.783 65.668 183.286 67.9961 181.623C69.1602 180.792 70.6015 179.711 71.1558 179.24C71.7101 178.769 72.6525 178.021 73.2899 177.577C76.4496 175.36 78.362 173.947 79.3044 173.116C79.8587 172.617 80.4407 172.201 80.5793 172.201C80.6902 172.201 81.9374 171.287 83.3232 170.178C84.709 169.097 86.4829 167.739 87.2589 167.213C90.5572 164.94 93.8277 162.418 96.1004 160.368C96.821 159.73 97.7357 159.121 98.1237 159.037C98.5394 158.927 99.8144 157.957 100.951 156.876C102.087 155.767 103.612 154.409 104.36 153.827C106.827 151.86 110.069 148.784 110.679 147.814C111.012 147.259 112.01 146.096 112.896 145.181C113.783 144.266 114.698 143.213 114.947 142.825L115.039 142.683C115.262 142.335 115.491 141.977 115.613 141.855C116.306 140.941 118.44 137.532 119.299 135.953C119.853 134.927 120.574 133.708 120.906 133.209C121.405 132.433 121.516 132.378 121.738 132.793C121.904 133.043 121.987 133.292 121.987 133.32ZM169.576 140.719C169.576 140.802 169.465 140.941 169.299 141.024C169.16 141.107 169.022 141.052 169.022 140.913C169.022 140.747 169.16 140.608 169.299 140.608C169.465 140.608 169.576 140.664 169.576 140.719ZM259.654 158.455C259.654 158.594 259.931 159.093 260.291 159.564C260.652 160.035 261.151 160.922 261.428 161.504C261.705 162.114 262.342 163.167 262.841 163.859C263.313 164.552 264.56 166.631 265.613 168.46C266.666 170.289 267.803 172.173 268.163 172.644C268.523 173.143 268.856 173.781 268.939 174.086C268.994 174.39 269.161 174.862 269.299 175.139C269.348 175.246 269.417 175.387 269.494 175.545C269.638 175.838 269.811 176.191 269.937 176.497C270.352 177.383 270.685 177.938 272.071 180.044C272.57 180.764 272.958 181.485 272.958 181.623C272.958 181.734 273.374 182.76 273.9 183.896C274.926 186.196 275.341 187.554 274.926 187.388C274.787 187.36 273.318 186.058 271.683 184.533C270.048 183.009 268.274 181.429 267.747 181.014C266.832 180.266 264.92 177.965 264.92 177.577C264.92 177.467 264.754 177.162 264.532 176.94C264.227 176.552 263.673 175.249 262.703 172.617C262.592 172.312 262.37 171.758 262.204 171.37C261.705 170.261 260.485 166.354 260.485 165.883C260.485 165.633 260.319 164.94 260.097 164.303C258.906 160.728 257.991 157.375 257.991 156.432C257.991 155.85 258.102 155.934 258.822 156.987C259.266 157.652 259.654 158.317 259.654 158.455ZM256.328 161.781C256.661 166.049 256.605 169.264 256.217 170.954C256.051 171.647 254.277 175.915 253.584 177.189C253.307 177.716 253.002 178.492 252.891 178.908C252.808 179.296 252.087 180.654 251.339 181.873C250.563 183.12 250.064 184.118 250.203 184.118C250.508 184.118 253.889 180.432 255.303 178.547C255.829 177.855 256.771 176.33 257.381 175.166C258.49 173.032 259.432 171.647 259.793 171.647C259.876 171.647 259.903 172.09 259.793 172.672C259.626 173.781 256.079 181.291 255.413 181.956C255.192 182.178 254.36 183.314 253.584 184.478C252.808 185.642 252.004 186.667 251.838 186.778C251.311 187.111 229.166 187.221 229.166 186.889C229.166 186.75 229.332 186.612 229.526 186.612C230.081 186.612 235.43 182.233 238.867 178.991C242.608 175.471 247.071 170.455 249.122 167.49L249.196 167.389C249.609 166.829 250.383 165.777 251.034 164.996C251.699 164.164 252.559 162.806 252.919 161.975C253.307 161.144 254.028 159.813 254.554 159.037C255.081 158.234 255.497 157.458 255.497 157.264C255.497 157.098 255.607 156.959 255.746 156.959C255.857 156.959 256.134 159.121 256.328 161.781ZM114.698 240.098C114.171 240.569 113.423 241.123 113.035 241.345C112.647 241.566 111.344 242.73 110.153 243.95L107.963 246.139L109.321 246.887C110.069 247.275 111.372 248.107 112.204 248.716C114.504 250.351 117.386 252.374 118.329 252.984C118.8 253.289 119.715 253.982 120.352 254.508C121.544 255.534 124.981 257.945 126.311 258.693C126.755 258.915 127.919 259.774 128.916 260.55C129.887 261.353 130.801 261.991 130.912 261.991C131.023 261.991 131.605 262.407 132.159 262.878C133.351 263.903 135.097 265.178 136.455 266.009C136.982 266.314 138.035 267.035 138.867 267.617C139.243 267.889 139.687 268.205 140.106 268.503C140.582 268.841 141.026 269.156 141.306 269.362C141.832 269.723 142.664 270.36 143.107 270.748C144.105 271.58 146.544 273.298 147.126 273.547C147.348 273.658 147.93 273.991 148.373 274.351C148.844 274.683 149.454 275.044 149.787 275.127C150.092 275.21 150.535 275.598 150.729 275.986C150.923 276.374 151.367 276.762 151.671 276.845C152.004 276.956 152.531 277.316 152.891 277.649C153.251 278.009 153.916 278.48 154.415 278.729C154.914 278.951 155.94 279.644 156.688 280.254C157.464 280.891 159.127 282.083 160.43 282.942C161.732 283.829 163.285 284.993 163.922 285.547C164.532 286.101 165.64 286.932 166.417 287.348C167.165 287.792 168.329 288.595 169.022 289.149C169.715 289.704 171.045 290.674 171.987 291.311L173.706 292.475L175.591 291.228C176.616 290.535 178.723 289.094 180.247 288.013L181.285 287.295L181.29 287.291L181.293 287.29C182.499 286.454 183.654 285.654 184.127 285.353C184.709 284.965 185.596 284.272 186.067 283.856C186.511 283.413 186.982 283.053 187.065 283.053C187.176 283.053 188.118 282.388 189.172 281.584C190.197 280.78 191.5 279.866 192.026 279.589C192.941 279.062 198.068 275.404 200.923 273.242C201.644 272.688 202.531 272.134 202.919 271.995C203.307 271.857 204.249 271.192 204.998 270.526C206.716 269.085 208.074 268.06 209.876 266.896C210.494 266.499 211.165 266.048 211.58 265.77C211.686 265.699 211.776 265.639 211.843 265.594C211.911 265.549 211.995 265.491 212.091 265.425L212.261 265.309L212.263 265.308C212.633 265.055 213.116 264.723 213.534 264.457C214.116 264.042 215.003 263.377 215.447 262.989C215.918 262.573 216.666 262.046 217.11 261.797C217.858 261.409 221.073 259.053 221.406 258.638C221.572 258.444 223.429 257.197 225.258 256.06C225.951 255.645 227.171 254.73 227.974 254.065C228.75 253.4 229.471 252.846 229.554 252.846C229.72 252.846 231.162 251.876 232.52 250.823C233.074 250.407 233.628 250.074 233.767 250.074C233.906 250.074 234.404 249.714 234.848 249.298C235.763 248.439 239.116 246.195 239.477 246.195C239.948 246.195 239.643 245.529 238.728 244.615C238.202 244.088 237.758 243.534 237.758 243.423C237.758 243.285 237.065 242.592 236.234 241.844C235.375 241.123 234.515 240.236 234.294 239.904L233.878 239.266H244.022L245.796 241.4C246.766 242.592 247.847 243.839 248.207 244.199C249.316 245.308 248.845 246.444 247.099 246.86C246.655 246.97 245.657 247.525 244.881 248.134C244.077 248.744 243.135 249.465 242.747 249.769C242.359 250.047 241.361 250.712 240.53 251.183C239.698 251.682 237.73 253.067 236.178 254.259C234.626 255.478 233.24 256.448 233.102 256.448C232.852 256.448 229.887 258.582 228.057 260.079C227.531 260.522 226.949 260.882 226.782 260.882C226.616 260.882 226.256 261.132 225.979 261.437C225.702 261.741 224.898 262.323 224.205 262.739C223.512 263.127 222.071 264.18 220.99 265.012C219.937 265.871 218.745 266.73 218.357 266.868C217.969 267.035 217.11 267.644 216.472 268.199C215.807 268.753 215.086 269.196 214.92 269.196C214.476 269.196 212.814 270.748 212.814 271.136C212.814 271.302 212.675 271.413 212.509 271.413C212.342 271.413 211.566 271.829 210.79 272.328C207.741 274.295 206.356 275.293 204.776 276.734C204.111 277.344 203.141 278.037 202.669 278.231C202.198 278.425 201.422 278.896 201.006 279.256C200.953 279.296 200.896 279.339 200.836 279.384C200.762 279.441 200.684 279.501 200.604 279.562C200.221 279.855 199.792 280.183 199.51 280.365C199.188 280.571 198.544 281.062 197.939 281.524L197.57 281.806C196.877 282.332 196.017 282.914 195.657 283.053C195.297 283.219 194.382 283.884 193.578 284.521C192.802 285.187 190.973 286.517 189.532 287.487C188.091 288.457 186.345 289.704 185.679 290.313C185.014 290.895 184.238 291.367 183.989 291.367C183.711 291.367 183.323 291.561 183.129 291.81C182.935 292.059 181.938 292.78 180.94 293.445C179.942 294.11 178.944 294.831 178.75 295.08C178.556 295.329 177.752 295.884 176.949 296.327C176.173 296.771 175.175 297.519 174.731 297.99L173.9 298.849L173.068 298.045C172.597 297.63 171.516 296.826 170.685 296.272C169.853 295.745 168.218 294.637 167.082 293.805C166.398 293.333 165.455 292.669 164.552 292.034L164.548 292.03L164.491 291.99C163.879 291.559 163.289 291.144 162.813 290.812C161.622 289.981 160.18 288.9 159.626 288.429C159.072 287.958 158.019 287.237 157.298 286.822C156.55 286.434 155.219 285.464 154.305 284.715C153.39 283.939 152.531 283.33 152.392 283.33C152.281 283.33 151.505 282.803 150.674 282.138C149.87 281.473 147.763 279.977 146.017 278.785C144.271 277.621 141.222 275.459 139.227 274.018C137.259 272.577 135.125 271.081 134.515 270.665C133.905 270.249 133.102 269.64 132.714 269.307C131.771 268.476 129.443 266.813 128.418 266.259C127.974 266.009 126.477 264.956 125.092 263.931C121.572 261.298 115.086 256.67 114.033 256.06C113.562 255.783 112.896 255.34 112.592 255.09C109.875 253.012 107.686 251.432 106.91 251.017C106.383 250.767 104.776 249.659 103.334 248.578C101.865 247.497 100.341 246.444 99.9252 246.222C98.9829 245.723 98.9829 245.335 99.9807 244.365C100.371 243.949 101.346 242.826 102.221 241.819L102.392 241.622C103.279 240.541 104.138 239.599 104.277 239.488C104.443 239.377 107.076 239.266 110.125 239.266H115.64L114.698 240.098ZM151.283 241.095C151.283 241.456 150.313 243.34 149.704 244.171C149.038 245.114 148.346 247.608 148.623 248.273C148.706 248.522 149.122 248.689 149.62 248.689H150.452V255.894H147.403V253.871C147.403 252.735 147.32 249.381 147.209 246.389L147.043 240.929H149.149C150.341 240.929 151.283 241.012 151.283 241.095ZM164.476 244.726C164.67 245.834 164.864 247.552 164.864 248.55C164.864 249.575 164.975 250.351 165.142 250.351C165.308 250.351 165.419 249.437 165.419 248.19C165.419 247.026 165.613 245.363 165.834 244.532C166.056 243.7 166.25 242.675 166.25 242.232C166.25 241.594 166.361 241.483 167.054 241.483C167.858 241.483 167.885 241.511 167.581 242.37C167.414 242.869 167.165 243.423 167.054 243.589C166.527 244.227 166.195 248.412 166.333 252.07C166.472 255.229 166.444 255.894 166.112 255.894C165.89 255.894 165.64 255.755 165.557 255.617C165.446 255.423 165.225 255.423 164.864 255.617C164.587 255.755 164.255 255.894 164.172 255.894C164.088 255.894 164.088 253.982 164.199 251.626C164.31 249.271 164.282 247.109 164.172 246.832C164.061 246.555 163.922 246.084 163.867 245.779C163.839 245.474 163.645 244.449 163.451 243.479C163.146 241.982 163.146 241.677 163.506 241.483C163.811 241.289 163.922 241.4 163.977 241.982C164.033 242.398 164.255 243.617 164.476 244.726ZM182.187 241.982C182.686 242.647 182.741 243.257 182.825 248.079L182.908 253.428L182.048 254.508C181.217 255.561 179.831 256.227 179.083 255.949C178.806 255.866 178.723 254.148 178.723 248.716C178.723 244.781 178.806 241.483 178.917 241.4C179 241.289 179.665 241.206 180.358 241.206C181.411 241.234 181.716 241.345 182.187 241.982ZM201.117 248.606L201.173 255.894H197.32L197.237 248.744C197.182 244.837 197.209 241.511 197.237 241.4C197.292 241.289 198.179 241.206 199.177 241.262L201.034 241.345L201.117 248.606ZM162.287 242.038C162.315 242.342 162.287 242.592 162.231 242.592C162.176 242.592 161.982 242.342 161.816 242.038C161.594 241.622 161.594 241.483 161.899 241.483C162.093 241.483 162.259 241.733 162.287 242.038ZM127.974 248.273C128.584 248.855 128.612 249.021 128.334 249.659C128.03 250.296 127.919 250.351 126.838 250.185C125.757 250.019 124.676 249.271 124.676 248.661C124.676 248.55 124.925 248.19 125.258 247.885C125.979 247.22 127.059 247.358 127.974 248.273ZM139.088 248.689C140.474 250.102 140.474 250.462 139.088 250.49C138.7 250.518 138.118 250.601 137.813 250.712C137.01 250.989 135.596 249.797 135.43 248.716C135.319 247.968 135.402 247.857 136.289 247.636C136.725 247.505 137.162 247.408 137.382 247.359L137.383 247.359C137.442 247.346 137.485 247.337 137.508 247.331C137.647 247.303 138.34 247.913 139.088 248.689ZM211.982 247.719C213.063 248.273 213.118 249.52 212.121 250.49C211.345 251.294 211.261 251.321 209.931 250.767C208.739 250.268 208.379 249.298 209.044 248.301C209.404 247.719 209.737 247.552 210.957 247.331C211.067 247.331 211.539 247.497 211.982 247.719ZM132.991 248.55C133.905 249.492 133.905 249.52 133.406 250.074C132.797 250.767 131.965 250.795 131.771 250.13C131.688 249.853 131.245 249.409 130.773 249.16C130.081 248.744 129.997 248.578 130.219 248.107C130.69 247.248 131.91 247.442 132.991 248.55ZM221.849 247.913C222.182 248.439 221.988 250.407 221.544 250.878C221.073 251.432 219.909 251.571 219.161 251.183C218.745 250.933 218.634 250.573 218.634 249.243V247.58H220.131C220.99 247.58 221.738 247.719 221.849 247.913ZM110.613 199.642C109.757 197.982 108.902 196.372 108.701 196.045C108.349 195.517 108.173 195.492 104.877 195.492H101.406L101.38 200.573C101.33 206.71 101.33 219.387 101.38 225.373L101.406 229.725L108.324 229.574L108.575 208.949L109.179 210.206C109.506 210.885 109.883 211.615 110.034 211.766C110.16 211.942 110.814 213.225 111.468 214.608C112.122 215.991 112.776 217.274 112.927 217.45C113.053 217.601 113.556 218.482 114.034 219.387C115.719 222.506 116.323 223.537 116.65 223.94C116.851 224.166 117.606 225.524 118.336 226.958L119.644 229.574H125.681L125.756 212.52L125.807 195.492H118.512V204.849L118.487 214.231L117.832 212.973C117.48 212.269 116.927 211.363 116.625 210.961C116.097 210.257 114.512 207.288 110.613 199.642ZM162.724 197.009C161.819 196.582 160.309 196.104 159.379 195.953C156.762 195.5 152.234 195.752 150.775 196.431C150.499 196.556 149.995 196.733 149.643 196.833C148.511 197.135 145.09 199.776 143.304 201.713C140.486 204.781 139.078 208.353 139.078 212.403C139.103 218.314 140.562 221.785 144.813 225.809C147.153 228.048 148.058 228.626 150.448 229.406C152.083 229.934 157.819 230.362 158.599 230.01C158.876 229.909 159.353 229.834 159.68 229.859C160.008 229.909 160.737 229.733 161.316 229.507C161.869 229.255 162.573 228.979 162.85 228.878C164.51 228.274 165.315 227.746 167.101 226.086C171.68 221.835 173.843 216.478 173.038 211.397C172.384 207.146 171.781 205.36 170.699 204.203C170.347 203.851 169.843 203.096 169.542 202.518C168.887 201.21 164.963 198.041 162.724 197.009ZM210.967 229.857V228.547C210.787 228.351 210.482 227.907 210.208 227.417C209.855 226.763 209.377 226.059 209.151 225.782C208.925 225.531 208.019 223.946 207.139 222.236C206.493 220.945 205.748 219.526 205.27 218.616C205.114 218.319 204.986 218.076 204.9 217.909C204.547 217.255 203.944 215.972 203.541 215.067L202.862 213.432L204.044 212.2C204.698 211.546 205.503 210.464 205.805 209.835C206.51 208.502 206.962 205.559 206.711 204.176C206.61 203.648 206.51 203.094 206.51 202.994C206.485 202.893 206.183 202.163 205.805 201.409C204.95 199.673 203.214 197.887 201.277 196.781L199.768 195.9L193.026 195.825L186.309 195.724L186.36 212.803L186.435 229.857H192.724L192.875 219.418C192.951 213.684 193.026 208.955 193.051 208.904C193.252 208.653 193.63 208.98 193.756 209.533C193.856 209.936 194.133 210.514 194.41 210.841C194.661 211.168 194.862 211.571 194.862 211.772C194.862 211.948 195.114 212.401 195.441 212.803C195.768 213.18 196.246 214.061 196.498 214.765C197.026 216.249 200.045 222.713 202.988 228.725L203.541 229.857H210.967ZM239.668 196.881C239.039 196.68 238.285 196.353 238.008 196.202C237.681 196.026 235.04 195.875 230.662 195.825L223.795 195.724V229.731H230.537C234.285 229.731 237.379 229.63 237.53 229.505C237.656 229.379 238.108 229.228 238.511 229.153C240.121 228.901 243.668 227.04 243.668 226.461C243.668 226.361 244.07 226.034 244.523 225.757C245.001 225.455 245.63 224.776 245.907 224.248C246.184 223.694 246.511 223.191 246.636 223.141C246.963 223.015 248.624 220.374 248.825 219.67C248.926 219.318 249.102 218.915 249.202 218.79C249.982 217.733 250.309 211.47 249.731 208.98C248.85 205.333 246.812 202.113 243.794 199.648C242.913 198.894 242.083 198.29 241.957 198.29C241.832 198.29 241.53 198.064 241.278 197.787C241.052 197.535 240.322 197.108 239.668 196.881Z" fill="black"/>
<path d="M262.065 144.682C261.982 144.821 262.093 145.236 262.287 145.624C262.509 145.985 262.758 146.483 262.841 146.705C262.952 146.927 263.146 147.315 263.285 147.537C263.337 147.62 263.433 147.786 263.555 148L263.559 148.007L263.56 148.008C263.762 148.36 264.036 148.837 264.31 149.282C266.223 152.691 266.5 152.885 267.054 151.25C267.248 150.696 267.83 149.67 268.357 148.978C268.856 148.257 269.604 147.01 270.02 146.206L270.741 144.765H268.163C266.722 144.765 264.809 144.682 263.895 144.599C262.952 144.488 262.148 144.544 262.065 144.682Z" fill="black"/>
<path d="M238.645 146.29C238.7 146.234 239.671 146.068 240.807 145.929L241.062 145.898C242.946 145.663 243.742 145.565 243.834 145.775C243.902 145.929 243.596 146.248 243.065 146.8L242.996 146.871C242.331 147.564 242.165 147.925 242.276 148.423C242.553 149.532 243.689 150.973 244.604 151.444L245.491 151.888L244.659 152.83C244.05 153.523 243.773 153.661 243.662 153.384C243.579 153.162 243.107 152.553 242.636 151.998C240.502 149.56 238.396 146.539 238.645 146.29Z" fill="black"/>
</svg>
