<svg width="350" height="350" viewBox="0 0 350 350" fill="none" xmlns="http://www.w3.org/2000/svg">
<path d="M74.4207 105.048C74.6681 105.297 75.4722 105.981 76.2453 106.51C77.0184 107.039 78.3172 108.158 79.1522 108.998L80.6057 110.522V162.712H71.019V102L72.5343 103.275C73.3384 103.959 74.2043 104.768 74.4207 105.048Z" fill="black"/>
<path d="M170.565 125.731C170.596 136.773 170.503 149.618 170.38 154.252L170.194 162.712H160.7V110.211L164.195 107.225C164.751 106.748 165.329 106.255 165.885 105.781L165.886 105.78L165.889 105.777C167.216 104.645 168.416 103.62 168.895 103.182L170.132 102.124L170.318 103.866C170.442 104.861 170.534 114.69 170.565 125.731Z" fill="black"/>
<path d="M114.87 120.755L114.777 134.253L100.397 134.316C92.4807 134.378 85.8319 134.284 85.5845 134.129C85.3062 133.942 85.1207 132.947 85.0279 130.956L84.8733 128.033L87.1617 126.167C88.3987 125.109 90.3778 123.585 91.522 122.745C91.9186 122.451 92.4631 122.051 93.0806 121.598L93.0876 121.592L93.0885 121.592C94.2994 120.702 95.7895 119.607 96.9957 118.702C98.8512 117.334 101.727 115.219 103.366 114.037C105.005 112.824 107.046 111.3 107.943 110.615C111.221 108.003 114.097 106.479 114.715 107.008C114.839 107.132 114.901 113.321 114.87 120.755Z" fill="black"/>
<path d="M128.786 107.505C129.59 107.941 130.796 108.718 131.477 109.247C132.157 109.745 133.054 110.398 133.487 110.678C133.92 110.989 134.909 111.735 135.682 112.388C136.486 113.041 137.878 114.099 138.775 114.721C139.703 115.343 141.744 116.836 143.321 118.049C144.898 119.262 147.279 121.035 148.609 121.968C149.939 122.901 152.165 124.518 153.526 125.545L156.031 127.411V130.894L156.062 134.409H141.713C133.827 134.409 127.147 134.316 126.869 134.222C126.436 134.067 126.374 132.574 126.374 120.599C126.374 113.197 126.467 107.039 126.591 106.945C126.9 106.603 127.24 106.696 128.786 107.505Z" fill="black"/>
<path d="M103.892 146.663C106.026 147.161 107.479 148.405 108.654 150.707C111.005 155.31 107.17 161.188 101.789 161.188C99.7789 161.188 98.4801 160.628 96.7792 158.98C94.9237 157.145 94.4289 155.932 94.5836 153.257C94.6763 151.204 94.7691 150.893 95.9133 149.431C97.1503 147.845 98.4491 146.943 100.243 146.508C101.603 146.197 101.913 146.197 103.892 146.663Z" fill="black"/>
<path d="M143.228 147.223C147.094 149.245 148.3 154.719 145.64 158.264C144.62 159.664 142.517 160.846 140.661 161.064C138.28 161.344 136.301 160.535 134.476 158.513C132.528 156.367 132.126 154.47 132.899 151.329C133.301 149.711 135.682 147.005 136.919 146.757C138.373 146.446 142.3 146.757 143.228 147.223Z" fill="black"/>
<path fill-rule="evenodd" clip-rule="evenodd" d="M86.4813 168.684C86.6978 169.586 87.0689 171.079 87.3163 171.95L87.7492 173.598H120.498C151.918 173.598 153.278 173.567 153.557 173.038C153.711 172.727 153.959 171.701 154.052 170.768C154.175 169.835 154.392 168.622 154.577 168.062L154.887 167.066H169.978V211.201L168.215 212.538C163.886 215.866 161.721 217.484 161.01 217.981C160.622 218.232 159.639 218.982 158.705 219.694L158.703 219.695L158.381 219.941C157.391 220.718 156.247 221.558 155.876 221.807C155.505 222.056 154.392 222.896 153.402 223.673C152.382 224.451 151.361 225.197 151.083 225.384C150.804 225.539 149.753 226.286 148.763 227.032C144.805 229.894 137.29 235.274 133.796 237.7C132.528 238.571 131.136 239.629 130.703 240.002C130.271 240.406 129.157 241.215 128.23 241.837C127.302 242.459 125.354 243.859 123.9 244.978C122.447 246.098 121.117 247 120.9 247C120.406 247 117.128 245.041 116.169 244.139C115.736 243.734 114.777 243.019 114.004 242.49C113.231 241.992 111.716 240.873 110.633 240.033C107.943 237.918 106.984 237.234 105.16 236.145C104.294 235.616 103.335 234.901 102.995 234.528C102.686 234.155 101.016 232.911 99.315 231.729C97.6142 230.547 94.7382 228.494 92.9446 227.188C85.8628 221.962 82.3065 219.381 79.5542 217.453C77.9461 216.333 76.0907 214.902 75.4103 214.28C74.73 213.658 73.8332 212.974 73.4312 212.787C73.0601 212.569 72.4106 212.103 72.0396 211.761L71.3283 211.139V167.066H86.1102L86.4813 168.684ZM82.4611 203.021V181.311L83.1724 181.498C83.5435 181.591 84.4403 181.685 85.1825 181.685H86.4813V201.248L87.1617 201.621C87.5637 201.839 89.1408 203.021 90.6871 204.296C92.2333 205.54 93.594 206.567 93.7177 206.567C93.9651 206.567 97.0575 208.744 97.4595 209.21C97.6451 209.428 98.7584 210.268 99.9335 211.077C101.034 211.843 102.778 213.127 104.038 214.054L104.387 214.311C105.624 215.275 107.51 216.675 108.561 217.39C109.582 218.137 111.159 219.381 112.056 220.127C112.922 220.874 113.788 221.496 113.973 221.496C114.221 221.496 114.283 216.426 114.252 203.519L114.159 185.573L103.892 185.479L93.594 185.417V181.374H121.271C143.197 181.374 148.949 181.467 148.949 181.747C148.949 181.965 148.516 182.898 148.021 183.769L147.094 185.417L136.796 185.479L126.529 185.573L126.436 203.674C126.405 214.249 126.498 221.807 126.652 221.807C126.962 221.807 128.848 220.47 131.6 218.323C132.621 217.515 134.012 216.582 134.662 216.24C135.342 215.897 135.961 215.431 136.053 215.182C136.146 214.933 137.229 214.062 138.496 213.223C139.733 212.383 142.424 210.455 144.496 208.899C150.959 204.047 152.382 203.021 154.082 201.932L155.752 200.875V181.343L159.927 181.529L160.02 185.573C160.082 187.781 160.02 192.571 159.927 196.21L159.711 202.772L158.69 203.519C156.433 205.105 153.742 207.127 151.485 208.899C150.186 209.926 148.361 211.263 147.496 211.823C146.599 212.383 145.857 212.943 145.857 213.067C145.826 213.16 145.145 213.751 144.279 214.342C143.444 214.933 141.434 216.395 139.857 217.608C139.366 217.969 138.876 218.332 138.419 218.67L138.419 218.671L138.417 218.672L138.415 218.674C137.378 219.442 136.518 220.079 136.239 220.252C135.868 220.501 134.507 221.527 133.208 222.522C131.91 223.518 130.023 224.855 129.003 225.539C127.982 226.192 126.621 227.188 125.941 227.748C124.055 229.365 121.704 231.107 121.086 231.293C120.344 231.542 119.138 230.858 116.911 229.023C115.922 228.183 113.911 226.69 112.458 225.664C111.005 224.668 109.118 223.269 108.221 222.585C104.572 219.723 100.954 217.017 99.717 216.208C98.9749 215.742 97.9853 214.996 97.4595 214.529C96.9648 214.062 95.2948 212.849 93.7486 211.761C92.2333 210.703 90.4706 209.428 89.883 208.899C89.2955 208.371 87.7492 207.189 86.4813 206.287C85.2134 205.354 83.7909 204.265 83.327 203.83L82.4611 203.021Z" fill="black"/>
<ellipse cx="189.688" cy="208.766" rx="7.57463" ry="7.21393" fill="black"/>
<path d="M238.802 165.108L222.188 215.748H208.805L231.502 154.662H240.019L238.802 165.108ZM252.605 215.748L235.949 165.108L234.607 154.662H243.207L266.031 215.748H252.605ZM251.85 193.008V202.868H219.587V193.008H251.85Z" fill="black"/>
<path d="M285.078 154.662V215.748H272.534V154.662H285.078Z" fill="black"/>
<path d="M314.354 220.536L322.86 224.145L347.52 183.589L322.86 143.119L314.354 146.728L336.865 183.589L314.354 220.536Z" fill="black"/>
<path d="M36.1665 220.536L27.6601 224.145L3.0002 183.589L27.6601 143.119L36.1665 146.728L13.6547 183.589L36.1665 220.536Z" fill="black"/>
</svg>
